<?xml version="1.0" encoding="UTF-8"?><svg id="_レイヤー_2" xmlns="http://www.w3.org/2000/svg" viewBox="0 0 692 300.17"><defs><style>.cls-1{fill:#e3d0b9;}.cls-2{fill:#616f61;}</style></defs><g id="_レイヤー_2-2"><g id="_レイヤー_1-2"><g><polygon class="cls-2" points="18.76 300.17 0 279.17 0 21 18.76 0 673.24 0 692 21 692 279.17 673.24 300.17 18.76 300.17"/><polygon class="cls-1" points="671 5 21 5 5 22.91 5 277.27 21 295.17 671 295.17 687 277.27 687 22.91 671 5"/><polygon class="cls-2" points="21.9 293.17 7 276.5 7 23.67 21.9 7 670.1 7 685 23.67 685 276.5 670.1 293.17 21.9 293.17"/><g><path class="cls-1" d="M31.24,20.63l-1.19-.06c-.21-1.25-.86-2.35-1.79-3.12l.54-1.06c.07-.13,.02-.29-.11-.36l-.87-.5c-.13-.07-.29-.03-.37,.09l-.65,1c-.56-.21-1.17-.33-1.81-.33s-1.23,.12-1.79,.33l-.65-1c-.08-.12-.24-.16-.37-.09l-.87,.5c-.13,.07-.17,.23-.11,.36l.54,1.06c-.94,.77-1.59,1.87-1.79,3.12l-1.19,.06c-.15,0-.26,.13-.26,.28v1.01c0,.15,.12,.27,.26,.28l1.19,.06c.21,1.25,.86,2.35,1.79,3.12l-.54,1.06c-.07,.13-.02,.29,.11,.36l.87,.5c.13,.07,.29,.03,.37-.09l.65-1c.56,.21,1.17,.33,1.81,.33s1.23-.12,1.79-.33l.65,1c.08,.12,.24,.16,.37,.09l.87-.5c.13-.07,.17-.23,.11-.36l-.54-1.06c.94-.77,1.59-1.87,1.79-3.12l1.19-.06c.15,0,.26-.13,.26-.28v-1.01c0-.15-.12-.27-.26-.28Zm-6.23,3.86c-1.7,0-3.08-1.37-3.09-3.07,0-1.7,1.37-3.08,3.07-3.09s3.08,1.37,3.09,3.07c0,1.7-1.37,3.08-3.07,3.09Z"/><path class="cls-1" d="M673.24,20.63l-1.19-.06c-.21-1.25-.86-2.35-1.79-3.12l.54-1.06c.07-.13,.02-.29-.11-.36l-.87-.5c-.13-.07-.29-.03-.37,.09l-.65,1c-.56-.21-1.17-.33-1.81-.33s-1.23,.12-1.79,.33l-.65-1c-.08-.12-.24-.16-.37-.09l-.87,.5c-.13,.07-.17,.23-.11,.36l.54,1.06c-.94,.77-1.59,1.87-1.79,3.12l-1.19,.06c-.15,0-.26,.13-.26,.28v1.01c0,.15,.12,.27,.26,.28l1.19,.06c.21,1.25,.86,2.35,1.79,3.12l-.54,1.06c-.07,.13-.02,.29,.11,.36l.87,.5c.13,.07,.29,.03,.37-.09l.65-1c.56,.21,1.17,.33,1.81,.33s1.23-.12,1.79-.33l.65,1c.08,.12,.24,.16,.37,.09l.87-.5c.13-.07,.17-.23,.11-.36l-.54-1.06c.94-.77,1.59-1.87,1.79-3.12l1.19-.06c.15,0,.26-.13,.26-.28v-1.01c0-.15-.12-.27-.26-.28Zm-6.23,3.86c-1.7,0-3.08-1.37-3.09-3.07,0-1.7,1.37-3.08,3.07-3.09s3.08,1.37,3.09,3.07c0,1.7-1.37,3.08-3.07,3.09Z"/></g><g><path class="cls-1" d="M31.74,275.99l-1.19-.06c-.21-1.25-.86-2.35-1.79-3.12l.54-1.06c.07-.13,.02-.29-.11-.36l-.87-.5c-.13-.07-.29-.03-.37,.09l-.65,1c-.56-.21-1.17-.33-1.81-.33s-1.23,.12-1.79,.33l-.65-1c-.08-.12-.24-.16-.37-.09l-.87,.5c-.13,.07-.17,.23-.11,.36l.54,1.06c-.94,.77-1.59,1.87-1.79,3.12l-1.19,.06c-.15,0-.26,.13-.26,.28v1.01c0,.15,.12,.27,.26,.28l1.19,.06c.21,1.25,.86,2.35,1.79,3.12l-.54,1.06c-.07,.13-.02,.29,.11,.36l.87,.5c.13,.07,.29,.03,.37-.09l.65-1c.56,.21,1.17,.33,1.81,.33s1.23-.12,1.79-.33l.65,1c.08,.12,.24,.16,.37,.09l.87-.5c.13-.07,.17-.23,.11-.36l-.54-1.06c.94-.77,1.59-1.87,1.79-3.12l1.19-.06c.15,0,.26-.13,.26-.28v-1.01c0-.15-.12-.27-.26-.28Zm-6.23,3.86c-1.7,0-3.08-1.37-3.09-3.07,0-1.7,1.37-3.08,3.07-3.09s3.08,1.37,3.09,3.07c0,1.7-1.37,3.08-3.07,3.09Z"/><path class="cls-1" d="M673.74,275.99l-1.19-.06c-.21-1.25-.86-2.35-1.79-3.12l.54-1.06c.07-.13,.02-.29-.11-.36l-.87-.5c-.13-.07-.29-.03-.37,.09l-.65,1c-.56-.21-1.17-.33-1.81-.33s-1.23,.12-1.79,.33l-.65-1c-.08-.12-.24-.16-.37-.09l-.87,.5c-.13,.07-.17,.23-.11,.36l.54,1.06c-.94,.77-1.59,1.87-1.79,3.12l-1.19,.06c-.15,0-.26,.13-.26,.28v1.01c0,.15,.12,.27,.26,.28l1.19,.06c.21,1.25,.86,2.35,1.79,3.12l-.54,1.06c-.07,.13-.02,.29,.11,.36l.87,.5c.13,.07,.29,.03,.37-.09l.65-1c.56,.21,1.17,.33,1.81,.33s1.23-.12,1.79-.33l.65,1c.08,.12,.24,.16,.37,.09l.87-.5c.13-.07,.17-.23,.11-.36l-.54-1.06c.94-.77,1.59-1.87,1.79-3.12l1.19-.06c.15,0,.26-.13,.26-.28v-1.01c0-.15-.12-.27-.26-.28Zm-6.23,3.86c-1.7,0-3.08-1.37-3.09-3.07,0-1.7,1.37-3.08,3.07-3.09s3.08,1.37,3.09,3.07c0,1.7-1.37,3.08-3.07,3.09Z"/></g></g></g></g></svg>