<?xml version="1.0" encoding="UTF-8"?><svg id="_レイヤー_2" xmlns="http://www.w3.org/2000/svg" viewBox="0 0 1528.88 483"><defs><style>.cls-1{fill:#e0d4bb;}.cls-2{fill:#c8ad7e;}.cls-3{fill:#493a22;}</style></defs><g id="_レイヤー_2-2"><g id="_レイヤー_1-2"><g><path class="cls-3" d="M33.37,483v-2c0-17.09-13.91-31-31-31h-.35l-2.02,.03V32.97l2.37,.03c17.09,0,31-13.91,31-31V0H1495.51V2c0,17.09,13.91,31,31,31h.35l2.02-.03V450.03l-2.37-.03c-17.09,0-31,13.91-31,31v2H33.37Z"/><path class="cls-2" d="M1526.51,448h.37V34.99h-.37c-18.23,0-33-14.77-33-33H35.37c0,18.23-14.77,33-33,33h-.37V448.01h.37c18.23,0,33,14.77,33,33H1493.51c0-18.23,14.77-33,33-33h0Z"/><path class="cls-1" d="M44.2,471c-3.78-15.82-16.33-28.27-32.2-31.91V43.91c15.87-3.64,28.41-16.1,32.2-31.91H1484.69c3.78,15.82,16.33,28.27,32.2,31.91V439.09c-15.87,3.65-28.42,16.1-32.2,31.91H44.2Z"/><path class="cls-2" d="M1511.51,466H17.37V17H1511.51V466Zm-1491.14-3H1508.51V20H20.37s0,443,0,443Z"/></g></g></g></svg>