<?xml version="1.0" encoding="UTF-8"?><svg id="_レイヤー_2" xmlns="http://www.w3.org/2000/svg" viewBox="0 0 1082.74 483"><defs><style>.cls-1{fill:#e0d4bb;}.cls-2{fill:#c8ad7e;}.cls-3{fill:#493a22;}</style></defs><g id="_レイヤー_1-2"><g><path class="cls-3" d="M33.37,483v-2c0-17.09-13.91-31-31-31h-.35s-2.02,.03-2.02,.03V32.97l2.37,.03c17.09,0,31-13.91,31-31V0h1016V2c0,17.09,13.91,31,31,31h.35s2.02-.03,2.02-.03V450.03l-2.37-.03c-17.09,0-31,13.91-31,31v2H33.37Z"/><path class="cls-2" d="M1080.37,448c.12,0,.25,0,.37,0V34.99c-.12,0-.25,0-.37,0-18.23,0-33-14.77-33-33H35.37c0,18.23-14.77,33-33,33-.12,0-.25,0-.37,0V448.01c.12,0,.25,0,.37,0,18.23,0,33,14.77,33,33h1012c0-18.23,14.77-33,33-33Z"/><path class="cls-1" d="M44.2,471c-3.78-15.82-16.33-28.27-32.2-31.91V43.91c15.87-3.64,28.41-16.1,32.2-31.91h994.35c3.78,15.82,16.33,28.27,32.2,31.91V439.09c-15.87,3.65-28.42,16.1-32.2,31.91H44.2Z"/><path class="cls-2" d="M1065.37,466H17.37V17H1065.37V466Zm-1045-3H1062.37V20H20.37V463Z"/></g></g></svg>