<?xml version="1.0" encoding="UTF-8"?><svg id="_レイヤー_2" xmlns="http://www.w3.org/2000/svg" viewBox="0 0 224.6 39.97"><defs><style>.cls-1{fill:#342a23;}.cls-2{fill:#8d8475;}.cls-3{fill:#564f45;}</style></defs><g id="_レイヤー_1-2"><g><path class="cls-2" d="M7.13,39.97l-.53-.39c-.27-.2-6.6-5.01-6.6-19.6S6.33,.58,6.6,.39l.53-.39H217.47l.53,.39c.27,.2,6.6,5.01,6.6,19.6s-6.33,19.4-6.6,19.6l-.53,.39H7.13Z"/><path class="cls-3" d="M216.82,2H7.78S2,6.24,2,19.99s5.78,17.99,5.78,17.99H216.82s5.78-4.24,5.78-17.99-5.78-17.99-5.78-17.99Z"/><path class="cls-1" d="M204.28,19.99c0-10.23,2.51-14.81,3.52-16.23,.15-.22,0-.52-.27-.52H17.08c-.27,0-.42,.3-.27,.52,1.01,1.42,3.52,6,3.52,16.23s-2.51,14.81-3.52,16.23c-.15,.22,0,.52,.27,.52H207.52c.27,0,.42-.3,.27-.52-1.01-1.42-3.52-6-3.52-16.23Z"/><g><path class="cls-2" d="M17.75,18.96l-1.19-.06c-.21-1.25-.86-2.35-1.79-3.12l.54-1.06c.07-.13,.02-.29-.11-.36l-.87-.5c-.13-.07-.29-.03-.37,.09l-.65,1c-.56-.21-1.17-.33-1.81-.33-.63,0-1.23,.12-1.79,.33l-.65-1c-.08-.12-.24-.16-.37-.09l-.87,.5c-.13,.07-.17,.23-.11,.36l.54,1.06c-.94,.77-1.59,1.87-1.79,3.12l-1.19,.06c-.15,0-.26,.13-.26,.28v1.01c0,.15,.12,.27,.26,.28l1.19,.06c.21,1.25,.86,2.35,1.79,3.12l-.54,1.06c-.07,.13-.02,.29,.11,.36l.87,.5c.13,.07,.29,.03,.37-.09l.65-1c.56,.21,1.17,.33,1.81,.33,.63,0,1.23-.12,1.79-.33l.65,1c.08,.12,.24,.16,.37,.09l.87-.5c.13-.07,.17-.23,.11-.36l-.54-1.06c.94-.77,1.59-1.87,1.79-3.12l1.19-.06c.15,0,.26-.13,.26-.28v-1.01c0-.15-.12-.27-.26-.28Zm-6.23,3.86c-1.7,0-3.08-1.37-3.09-3.07,0-1.7,1.37-3.08,3.07-3.09s3.08,1.37,3.09,3.07c0,1.7-1.37,3.08-3.07,3.09Z"/><path class="cls-2" d="M219.33,18.96l-1.19-.06c-.21-1.25-.86-2.35-1.79-3.12l.54-1.06c.07-.13,.02-.29-.11-.36l-.87-.5c-.13-.07-.29-.03-.37,.09l-.65,1c-.56-.21-1.17-.33-1.81-.33-.63,0-1.23,.12-1.79,.33l-.65-1c-.08-.12-.24-.16-.37-.09l-.87,.5c-.13,.07-.17,.23-.11,.36l.54,1.06c-.94,.77-1.59,1.87-1.79,3.12l-1.19,.06c-.15,0-.26,.13-.26,.28v1.01c0,.15,.12,.27,.26,.28l1.19,.06c.21,1.25,.86,2.35,1.79,3.12l-.54,1.06c-.07,.13-.02,.29,.11,.36l.87,.5c.13,.07,.29,.03,.37-.09l.65-1c.56,.21,1.17,.33,1.81,.33,.63,0,1.23-.12,1.79-.33l.65,1c.08,.12,.24,.16,.37,.09l.87-.5c.13-.07,.17-.23,.11-.36l-.54-1.06c.94-.77,1.59-1.87,1.79-3.12l1.19-.06c.15,0,.26-.13,.26-.28v-1.01c0-.15-.12-.27-.26-.28Zm-6.23,3.86c-1.7,0-3.08-1.37-3.09-3.07,0-1.7,1.37-3.08,3.07-3.09s3.08,1.37,3.09,3.07c0,1.7-1.37,3.08-3.07,3.09Z"/></g></g></g></svg>