<?xml version="1.0" encoding="UTF-8"?><svg id="_レイヤー_2" xmlns="http://www.w3.org/2000/svg" viewBox="0 0 855.23 1212.69"><defs><style>.cls-1{fill:#e0d4bb;}.cls-2{fill:#c8ad7e;}.cls-3{fill:#493a22;}</style></defs><g id="thieves_listbg-m"><g id="_レイヤー_1-2"><g><path class="cls-3" d="M33.37,1212.69v-2c0-17.09-13.91-31-31-31h-.35l-2.02,.03V32.97l2.37,.03c17.09,0,31-13.91,31-31V0H821.86V2c0,17.09,13.91,31,31,31h.35l2.02-.03V1179.72l-2.37-.03c-17.09,0-31,13.91-31,31v2H33.37Z"/><path class="cls-2" d="M852.86,1177.69h.37V34.99h-.37c-18.23,0-33-14.77-33-33H35.37c0,18.23-14.77,33-33,33h-.37V1177.7h.37c18.23,0,33,14.77,33,33H819.86c0-18.23,14.77-33,33-33h0Z"/><path class="cls-1" d="M44.2,1200.69c-3.78-15.82-16.33-28.27-32.2-31.91V43.91c15.87-3.64,28.41-16.1,32.2-31.91H811.04c3.78,15.82,16.33,28.27,32.2,31.91V1168.78c-15.87,3.65-28.42,16.1-32.2,31.91H44.2Z"/><path class="cls-2" d="M837.86,1195.69H17.37V17H837.86V1195.69Zm-817.49-3H834.86V20H20.37s0,1172.69,0,1172.69Z"/></g></g></g></svg>