<?xml version="1.0" encoding="UTF-8"?><svg id="_レイヤー_2" xmlns="http://www.w3.org/2000/svg" viewBox="0 0 217.79 217.79"><defs><style>.cls-1{fill:#a88663;}</style></defs><g id="_レイヤー_1-2"><path class="cls-1" d="M0,105.59v6.62c0,1.25,.96,2.3,2.2,2.41l5.59,.5c.16,2.63,.42,5.23,.77,7.8l-5.37,1.6c-1.2,.36-1.93,1.57-1.68,2.8l1.31,6.48c.25,1.23,1.39,2.06,2.64,1.92l5.55-.62c.61,2.29,1.3,4.55,2.07,6.78l-4.95,2.59c-1.11,.58-1.59,1.91-1.11,3.07l2.53,6.11c.48,1.16,1.76,1.76,2.95,1.38l5.33-1.67c1.15,2.35,2.39,4.66,3.72,6.9l-4.35,3.53c-.97,.79-1.18,2.19-.48,3.23l3.7,5.49c.7,1.04,2.07,1.37,3.17,.77l4.91-2.71c1.44,1.87,2.94,3.69,4.5,5.46l-3.6,4.3c-.8,.96-.74,2.37,.14,3.26l4.68,4.68c.88,.88,2.3,.95,3.26,.14l4.3-3.6c1.95,1.73,3.98,3.39,6.06,4.96l-2.67,4.93c-.6,1.1-.25,2.47,.79,3.16l5.52,3.66c1.04,.69,2.44,.47,3.22-.51l3.49-4.37c2.04,1.18,4.13,2.29,6.25,3.33l-1.67,5.33c-.37,1.19,.22,2.48,1.38,2.95l6.11,2.53c1.16,.48,2.49,0,3.07-1.11l2.59-4.95c2.46,.85,4.97,1.6,7.51,2.26l-.58,5.55c-.13,1.24,.71,2.38,1.94,2.62l6.49,1.27c1.23,.24,2.44-.5,2.78-1.7l1.55-5.38c2.33,.3,4.68,.53,7.05,.67l.5,5.59c.11,1.25,1.16,2.2,2.41,2.2h6.62c1.25,0,2.3-.96,2.41-2.2l.5-5.59c2.63-.16,5.23-.42,7.8-.77l1.6,5.37c.36,1.2,1.57,1.93,2.8,1.68l6.48-1.31c1.23-.25,2.06-1.39,1.92-2.64l-.62-5.55c2.29-.61,4.55-1.3,6.78-2.07l2.59,4.95c.58,1.11,1.91,1.59,3.07,1.11l6.11-2.53c1.16-.48,1.75-1.76,1.38-2.95l-1.67-5.33c2.35-1.15,4.66-2.39,6.9-3.72l3.53,4.35c.79,.97,2.19,1.18,3.23,.48l5.49-3.7c1.04-.7,1.37-2.07,.77-3.17l-2.71-4.91c1.87-1.44,3.69-2.94,5.46-4.5l4.3,3.6c.96,.8,2.37,.74,3.26-.14l4.68-4.68c.88-.88,.95-2.3,.14-3.26l-3.6-4.3c1.73-1.95,3.39-3.98,4.96-6.06l4.93,2.67c1.1,.6,2.47,.25,3.16-.79l3.66-5.52c.69-1.04,.47-2.44-.51-3.22l-4.37-3.49c1.18-2.04,2.29-4.13,3.33-6.25l5.33,1.67c1.19,.37,2.48-.22,2.95-1.38l2.53-6.11c.48-1.16,0-2.49-1.11-3.07l-4.95-2.59c.85-2.46,1.6-4.97,2.26-7.51l5.55,.58c1.24,.13,2.38-.71,2.62-1.94l1.27-6.49c.24-1.23-.5-2.44-1.7-2.78l-5.38-1.56c.3-2.33,.53-4.68,.67-7.05l5.59-.5c1.25-.11,2.2-1.16,2.2-2.41v-6.62c0-1.25-.96-2.3-2.2-2.41l-5.59-.5c-.16-2.63-.42-5.23-.77-7.8l5.37-1.6c1.2-.36,1.93-1.57,1.68-2.8l-1.32-6.48c-.25-1.23-1.39-2.06-2.64-1.92l-5.55,.62c-.61-2.29-1.3-4.55-2.07-6.78l4.95-2.59c1.11-.58,1.59-1.91,1.11-3.07l-2.53-6.11c-.48-1.16-1.76-1.76-2.95-1.38l-5.33,1.67c-1.15-2.35-2.39-4.66-3.72-6.9l4.35-3.53c.97-.79,1.18-2.19,.48-3.23l-3.7-5.49c-.7-1.04-2.07-1.37-3.17-.77l-4.91,2.71c-1.44-1.87-2.94-3.69-4.5-5.46l3.6-4.3c.8-.96,.74-2.37-.14-3.26l-4.68-4.68c-.88-.88-2.3-.95-3.26-.14l-4.3,3.6c-1.95-1.73-3.97-3.39-6.06-4.96l2.67-4.93c.6-1.1,.25-2.47-.79-3.16l-5.52-3.66c-1.04-.69-2.44-.47-3.22,.51l-3.49,4.37c-2.04-1.18-4.13-2.29-6.25-3.33l1.67-5.33c.37-1.19-.22-2.48-1.38-2.95l-6.11-2.53c-1.16-.48-2.49,0-3.07,1.11l-2.59,4.95c-2.46-.85-4.97-1.6-7.51-2.26l.58-5.55c.13-1.24-.71-2.38-1.94-2.62l-6.49-1.27c-1.23-.24-2.44,.5-2.78,1.7l-1.55,5.38c-2.33-.3-4.68-.53-7.05-.67l-.5-5.59C114.5,.96,113.46,0,112.2,0h-6.62c-1.25,0-2.3,.96-2.41,2.2l-.5,5.59c-2.63,.16-5.23,.42-7.8,.77l-1.6-5.37c-.36-1.2-1.57-1.93-2.8-1.68l-6.48,1.31c-1.23,.25-2.06,1.39-1.92,2.64l.62,5.55c-2.29,.61-4.55,1.3-6.78,2.07l-2.59-4.95c-.58-1.11-1.91-1.59-3.07-1.11l-6.11,2.53c-1.16,.48-1.75,1.76-1.38,2.95l1.67,5.33c-2.35,1.15-4.66,2.39-6.9,3.72l-3.53-4.35c-.79-.97-2.19-1.18-3.23-.48l-5.49,3.7c-1.04,.7-1.37,2.07-.77,3.17l2.71,4.91c-1.87,1.44-3.69,2.94-5.46,4.5l-4.3-3.6c-.96-.8-2.37-.74-3.26,.14l-4.68,4.68c-.88,.88-.95,2.3-.14,3.26l3.6,4.3c-1.73,1.95-3.39,3.98-4.96,6.06l-4.93-2.67c-1.1-.6-2.47-.25-3.16,.79l-3.66,5.52c-.69,1.04-.47,2.44,.51,3.22l4.37,3.49c-1.18,2.04-2.29,4.13-3.33,6.25l-5.33-1.67c-1.19-.37-2.48,.22-2.95,1.38l-2.53,6.11c-.48,1.16,0,2.49,1.11,3.07l4.95,2.59c-.85,2.46-1.6,4.97-2.26,7.51l-5.55-.58c-1.24-.13-2.38,.71-2.62,1.94l-1.27,6.49c-.24,1.23,.5,2.44,1.7,2.78l5.38,1.55c-.3,2.33-.53,4.68-.67,7.05l-5.59,.5C.96,103.29,0,104.34,0,105.59Zm58.33-34.9l-16.58-9.57c13.52-18.96,34.87-31.95,59.33-34.25v19.13c-17.43,2.14-32.66,11.36-42.75,24.69Zm30.34,38.21c0-11.17,9.05-20.22,20.22-20.22,11.17,0,20.22,9.05,20.22,20.22s-9.05,20.22-20.22,20.22-20.22-9.05-20.22-20.22ZM116.71,26.86c24.46,2.3,45.81,15.29,59.33,34.25l-16.58,9.57c-10.09-13.33-25.33-22.54-42.75-24.69V26.86Zm74.59,82.03c0,12.22-2.67,23.83-7.44,34.26l-16.57-9.57c3.21-7.59,4.99-15.93,4.99-24.69,0-8.76-1.78-17.1-4.99-24.69l16.57-9.57c4.78,10.43,7.44,22.03,7.44,34.26Zm-15.26,47.78c-13.52,18.96-34.87,31.95-59.33,34.25v-19.13c17.43-2.14,32.66-11.36,42.75-24.69l16.58,9.57Zm-74.95,34.25c-24.46-2.3-45.81-15.29-59.33-34.25l16.58-9.57c10.09,13.33,25.33,22.54,42.75,24.69v19.13ZM26.49,108.9c0-12.22,2.67-23.83,7.44-34.26l16.57,9.57c-3.21,7.59-4.99,15.93-4.99,24.69,0,8.76,1.78,17.1,4.99,24.69l-16.57,9.57c-4.78-10.43-7.44-22.03-7.44-34.26Z"/></g></svg>