<?xml version="1.0" encoding="UTF-8"?><svg id="_レイヤー_2" xmlns="http://www.w3.org/2000/svg" viewBox="0 0 274.41 274.41"><defs><style>.cls-1{fill:#a88663;}</style></defs><g id="_レイヤー_1-2"><path class="cls-1" d="M137.2,0C61.43,0,0,61.43,0,137.2s61.43,137.2,137.2,137.2,137.2-61.43,137.2-137.2S212.98,0,137.2,0Zm100.12,93.67l-43.45,14.12c-9.1-17.5-26.06-30.25-46.21-33.57V28.55c40.28,3.83,74.17,29.54,89.66,65.12Zm-138.68,43.53c0-21.3,17.27-38.57,38.57-38.57s38.57,17.27,38.57,38.57-17.27,38.57-38.57,38.57-38.57-17.27-38.57-38.57ZM126.74,28.55v45.67c-20.14,3.32-37.11,16.07-46.21,33.57l-43.45-14.12c15.49-35.58,49.38-61.29,89.66-65.12ZM28.05,137.2c0-8.11,.89-16.02,2.57-23.63l43.45,14.12c-.46,3.1-.71,6.28-.71,9.51,0,17.45,7.01,33.27,18.36,44.8l-26.85,36.95c-22.59-20-36.83-49.21-36.83-81.74Zm53.75,94.05l26.85-36.95c8.59,4.31,18.29,6.73,28.56,6.73s19.96-2.43,28.56-6.73l26.85,36.95c-16.24,9.59-35.18,15.1-55.4,15.1s-39.16-5.51-55.4-15.1Zm127.73-12.31l-26.85-36.95c11.35-11.52,18.36-27.34,18.36-44.8,0-3.23-.24-6.41-.71-9.51l43.45-14.12c1.68,7.61,2.57,15.52,2.57,23.63,0,32.54-14.24,61.75-36.83,81.74Z"/></g></svg>