<?xml version="1.0" encoding="UTF-8"?><svg id="_レイヤー_2" xmlns="http://www.w3.org/2000/svg" viewBox="0 0 164.34 164.34"><defs><style>.cls-1{fill:#6d5944;}</style></defs><g id="_レイヤー_1-2"><path class="cls-1" d="M162.06,77.8l-6.93-.62c-1.19-.11-2.14-1.04-2.26-2.23-.46-4.53-1.34-8.94-2.61-13.18-.34-1.15,.17-2.37,1.23-2.93l6.16-3.22c1.15-.6,1.65-1.98,1.15-3.17l-1.44-3.47c-.5-1.2-1.82-1.82-3.06-1.43l-6.63,2.08c-1.14,.36-2.37-.14-2.94-1.19-2.14-3.96-4.64-7.7-7.47-11.17-.76-.93-.75-2.26,.02-3.18l4.46-5.34c.83-.99,.77-2.45-.15-3.37l-2.66-2.66c-.92-.92-2.38-.98-3.37-.15l-5.34,4.46c-.92,.77-2.25,.78-3.18,.02-3.47-2.83-7.2-5.33-11.17-7.47-1.05-.57-1.55-1.8-1.19-2.94l2.08-6.63c.39-1.23-.23-2.56-1.43-3.06l-3.47-1.44c-1.2-.5-2.57,0-3.17,1.15l-3.22,6.16c-.55,1.06-1.78,1.58-2.93,1.23-4.24-1.27-8.65-2.15-13.18-2.61-1.19-.12-2.13-1.07-2.23-2.26l-.62-6.93c-.11-1.29-1.19-2.28-2.49-2.28h-3.76c-1.29,0-2.37,.99-2.49,2.28l-.62,6.93c-.11,1.19-1.04,2.14-2.23,2.26-4.53,.46-8.94,1.34-13.18,2.61-1.15,.34-2.37-.17-2.93-1.23l-3.22-6.16c-.6-1.15-1.98-1.65-3.17-1.15l-3.47,1.44c-1.2,.5-1.82,1.82-1.43,3.06l2.08,6.63c.36,1.14-.14,2.37-1.19,2.94-3.96,2.14-7.7,4.64-11.17,7.47-.93,.76-2.26,.75-3.18-.02l-5.34-4.46c-.99-.83-2.45-.77-3.37,.15l-2.66,2.66c-.92,.92-.98,2.38-.15,3.37l4.46,5.34c.77,.92,.78,2.25,.02,3.18-2.83,3.47-5.33,7.2-7.47,11.17-.57,1.05-1.8,1.55-2.94,1.19l-6.63-2.08c-1.23-.39-2.56,.23-3.06,1.43l-1.44,3.47c-.5,1.2,0,2.57,1.15,3.17l6.16,3.22c1.06,.55,1.58,1.78,1.23,2.93-1.27,4.24-2.15,8.65-2.61,13.18-.12,1.19-1.07,2.13-2.26,2.23l-6.93,.62c-1.29,.11-2.28,1.19-2.28,2.49v3.76c0,1.29,.99,2.37,2.28,2.49l6.93,.62c1.19,.11,2.14,1.04,2.26,2.23,.46,4.53,1.34,8.94,2.61,13.18,.34,1.15-.17,2.37-1.23,2.93l-6.16,3.22c-1.15,.6-1.65,1.98-1.15,3.17l1.44,3.47c.5,1.2,1.82,1.82,3.06,1.43l6.63-2.08c1.14-.36,2.37,.14,2.94,1.19,2.14,3.96,4.64,7.7,7.47,11.17,.76,.93,.75,2.26-.02,3.18l-4.46,5.34c-.83,.99-.77,2.45,.15,3.37l2.66,2.66c.92,.92,2.38,.98,3.37,.15l5.34-4.46c.92-.77,2.25-.78,3.18-.02,3.47,2.83,7.2,5.33,11.17,7.47,1.05,.57,1.55,1.8,1.19,2.94l-2.08,6.63c-.39,1.23,.23,2.56,1.43,3.06l3.47,1.44c1.2,.5,2.57,0,3.17-1.15l3.22-6.16c.55-1.06,1.78-1.58,2.93-1.23,4.24,1.27,8.65,2.15,13.18,2.61,1.19,.12,2.13,1.07,2.23,2.26l.62,6.93c.11,1.29,1.19,2.28,2.49,2.28h3.76c1.29,0,2.37-.99,2.49-2.28l.62-6.93c.11-1.19,1.04-2.14,2.23-2.26,4.53-.46,8.94-1.34,13.18-2.61,1.15-.34,2.37,.17,2.93,1.23l3.22,6.16c.6,1.15,1.98,1.65,3.17,1.15l3.47-1.44c1.2-.5,1.82-1.82,1.43-3.06l-2.08-6.63c-.36-1.14,.14-2.37,1.19-2.94,3.96-2.14,7.7-4.64,11.17-7.47,.93-.76,2.26-.75,3.18,.02l5.34,4.46c.99,.83,2.45,.77,3.37-.15l2.66-2.66c.92-.92,.98-2.38,.15-3.37l-4.46-5.34c-.77-.92-.78-2.25-.02-3.18,2.83-3.47,5.33-7.2,7.47-11.17,.57-1.05,1.8-1.55,2.94-1.19l6.63,2.08c1.23,.39,2.56-.23,3.06-1.43l1.44-3.47c.5-1.2,0-2.57-1.15-3.17l-6.16-3.22c-1.06-.55-1.58-1.78-1.23-2.93,1.27-4.24,2.15-8.65,2.61-13.18,.12-1.19,1.07-2.13,2.26-2.23l6.93-.62c1.29-.11,2.28-1.19,2.28-2.49v-3.76c0-1.29-.99-2.37-2.28-2.49ZM81.7,27.99c28.67-.24,52.25,21.79,54.48,49.83h-11.12c-2.18-21.77-20.55-38.76-42.89-38.76s-40.71,17-42.89,38.76h-11.12c2.22-27.62,25.42-49.59,53.53-49.83Zm15.34,54.18c0,8.21-6.66,14.87-14.87,14.87s-14.87-6.66-14.87-14.87,6.66-14.87,14.87-14.87,14.87,6.66,14.87,14.87Zm-14.4,54.18c-28.67,.24-52.25-21.79-54.48-49.83h11.12c2.18,21.77,20.55,38.76,42.89,38.76s40.71-17,42.89-38.76h11.12c-2.22,27.62-25.42,49.59-53.53,49.83Z"/></g></svg>