<?xml version="1.0" encoding="UTF-8"?><svg id="_レイヤー_2" xmlns="http://www.w3.org/2000/svg" viewBox="0 0 236.18 236.18"><defs><style>.cls-1{fill:#a88663;}</style></defs><g id="_レイヤー_1-2"><path class="cls-1" d="M0,117.26v1.67c0,2.71,2.04,4.98,4.74,5.28l7.35,1.3c1.39,.25,2.46,1.39,2.6,2.8,.22,2.26,.52,4.5,.88,6.72,.23,1.4-.5,2.77-1.79,3.37l-6.76,3.15c-2.53,.98-3.91,3.7-3.21,6.32l.43,1.61c.7,2.62,3.26,4.29,5.94,3.87l7.42-.65c1.41-.12,2.73,.7,3.23,2.03,.8,2.12,1.66,4.21,2.59,6.27,.58,1.29,.23,2.81-.85,3.72l-5.7,4.79c-2.19,1.6-2.82,4.59-1.46,6.94l.83,1.44c1.36,2.35,4.26,3.3,6.74,2.2l7.02-2.56c1.33-.48,2.82-.03,3.64,1.12,1.32,1.84,2.69,3.63,4.12,5.37,.9,1.09,.95,2.65,.14,3.81l-4.29,6.12c-1.7,2.11-1.54,5.16,.38,7.08l1.18,1.18c1.92,1.92,4.97,2.08,7.08,.38l6.12-4.29c1.16-.81,2.72-.76,3.81,.14,1.74,1.43,3.53,2.81,5.37,4.12,1.15,.82,1.6,2.32,1.12,3.64l-2.56,7.02c-1.1,2.48-.15,5.39,2.2,6.74l1.44,.83c2.35,1.36,5.34,.72,6.94-1.46l4.79-5.7c.91-1.08,2.43-1.44,3.72-.85,2.05,.93,4.14,1.79,6.27,2.59,1.32,.5,2.15,1.82,2.03,3.23l-.65,7.42c-.42,2.68,1.25,5.24,3.87,5.94l1.61,.43c2.62,.7,5.34-.68,6.32-3.21l3.15-6.76c.6-1.28,1.97-2.02,3.37-1.79,2.22,.36,4.45,.66,6.72,.88,1.41,.14,2.55,1.2,2.8,2.6l1.3,7.35c.29,2.69,2.57,4.74,5.28,4.74h1.67c2.71,0,4.98-2.04,5.28-4.74l1.3-7.35c.25-1.39,1.39-2.46,2.8-2.6,2.26-.22,4.5-.52,6.72-.88,1.4-.23,2.77,.5,3.37,1.79l3.15,6.76c.98,2.53,3.7,3.91,6.32,3.21l1.61-.43c2.62-.7,4.29-3.26,3.87-5.94l-.65-7.42c-.12-1.41,.7-2.73,2.03-3.23,2.12-.8,4.21-1.66,6.27-2.59,1.29-.58,2.81-.23,3.72,.85l4.79,5.7c1.6,2.19,4.59,2.82,6.94,1.46l1.44-.83c2.35-1.36,3.3-4.26,2.2-6.74l-2.56-7.02c-.48-1.33-.03-2.82,1.12-3.64,1.84-1.32,3.63-2.69,5.37-4.12,1.09-.9,2.65-.95,3.81-.14l6.12,4.29c2.11,1.7,5.16,1.54,7.08-.38l1.18-1.18c1.92-1.92,2.08-4.97,.38-7.08l-4.29-6.12c-.81-1.16-.76-2.72,.14-3.81,1.43-1.74,2.81-3.53,4.12-5.37,.82-1.15,2.32-1.6,3.64-1.12l7.02,2.56c2.48,1.1,5.39,.15,6.74-2.2l.83-1.44c1.36-2.35,.72-5.34-1.46-6.94l-5.7-4.79c-1.08-.91-1.44-2.43-.85-3.72,.93-2.05,1.79-4.14,2.59-6.27,.5-1.32,1.82-2.15,3.23-2.03l7.42,.65c2.68,.42,5.24-1.25,5.94-3.87l.43-1.61c.7-2.62-.68-5.34-3.21-6.32l-6.76-3.15c-1.28-.6-2.02-1.97-1.79-3.37,.36-2.22,.66-4.45,.88-6.72,.14-1.41,1.2-2.55,2.6-2.8l7.35-1.3c2.69-.29,4.74-2.57,4.74-5.28v-1.67c0-2.71-2.04-4.98-4.74-5.28l-7.35-1.3c-1.39-.25-2.46-1.39-2.6-2.8-.22-2.26-.52-4.5-.88-6.72-.23-1.4,.5-2.77,1.79-3.37l6.76-3.15c2.53-.98,3.91-3.7,3.21-6.32l-.43-1.61c-.7-2.62-3.26-4.29-5.94-3.87l-7.42,.65c-1.41,.12-2.73-.7-3.23-2.03-.8-2.12-1.66-4.21-2.59-6.27-.58-1.29-.23-2.81,.85-3.72l5.7-4.79c2.19-1.6,2.82-4.59,1.46-6.94l-.83-1.44c-1.36-2.35-4.26-3.3-6.74-2.2l-7.02,2.56c-1.33,.48-2.82,.03-3.64-1.12-1.32-1.84-2.69-3.63-4.12-5.37-.9-1.09-.95-2.65-.14-3.81l4.29-6.12c1.7-2.11,1.54-5.16-.38-7.08l-1.18-1.18c-1.92-1.92-4.97-2.08-7.08-.38l-6.12,4.29c-1.16,.81-2.72,.76-3.81-.14-1.74-1.43-3.53-2.81-5.37-4.12-1.15-.82-1.6-2.32-1.12-3.64l2.56-7.02c1.1-2.48,.15-5.39-2.2-6.74l-1.44-.83c-2.35-1.36-5.34-.72-6.94,1.46l-4.79,5.7c-.91,1.08-2.43,1.44-3.72,.85-2.05-.93-4.14-1.79-6.27-2.59-1.32-.5-2.15-1.82-2.03-3.23l.65-7.42c.42-2.68-1.25-5.24-3.87-5.94l-1.61-.43c-2.62-.7-5.34,.68-6.32,3.21l-3.15,6.76c-.6,1.28-1.97,2.02-3.37,1.79-2.22-.36-4.45-.66-6.72-.88-1.41-.14-2.55-1.2-2.8-2.6l-1.3-7.35C123.91,2.04,121.63,0,118.92,0h-1.67c-2.71,0-4.98,2.04-5.28,4.74l-1.3,7.35c-.25,1.39-1.39,2.46-2.8,2.6-2.26,.22-4.5,.52-6.72,.88-1.4,.23-2.77-.5-3.37-1.79l-3.15-6.76c-.98-2.53-3.7-3.91-6.32-3.21l-1.61,.43c-2.62,.7-4.29,3.26-3.87,5.94l.65,7.42c.12,1.41-.7,2.73-2.03,3.23-2.12,.8-4.21,1.66-6.27,2.59-1.29,.58-2.81,.23-3.72-.85l-4.79-5.7c-1.6-2.19-4.59-2.82-6.94-1.46l-1.44,.83c-2.35,1.36-3.3,4.26-2.2,6.74l2.56,7.02c.48,1.33,.03,2.82-1.12,3.64-1.84,1.32-3.63,2.69-5.37,4.12-1.09,.9-2.65,.95-3.81,.14l-6.12-4.29c-2.11-1.7-5.16-1.54-7.08,.38l-1.18,1.18c-1.92,1.92-2.08,4.97-.38,7.08l4.29,6.12c.81,1.16,.76,2.72-.14,3.81-1.43,1.74-2.81,3.53-4.12,5.37-.82,1.15-2.32,1.6-3.64,1.12l-7.02-2.56c-2.48-1.1-5.38-.15-6.74,2.2l-.83,1.44c-1.36,2.35-.72,5.34,1.46,6.94l5.7,4.79c1.08,.91,1.44,2.43,.85,3.72-.93,2.05-1.79,4.14-2.59,6.27-.5,1.32-1.82,2.15-3.23,2.03l-7.42-.65c-2.68-.42-5.24,1.25-5.94,3.87l-.43,1.61c-.7,2.62,.68,5.34,3.21,6.32l6.76,3.15c1.28,.6,2.02,1.97,1.79,3.37-.36,2.22-.66,4.45-.88,6.72-.14,1.41-1.2,2.55-2.6,2.8l-7.35,1.3C2.04,112.27,0,114.55,0,117.26Zm43.32-15.2l23.72,7.71c-.44,2.71-.67,5.49-.67,8.33,0,14.37,5.86,27.37,15.32,36.74l-14.66,20.17c-15.59-14-25.4-34.31-25.4-56.91,0-5.5,.59-10.86,1.69-16.04Zm125.83,72.95l-14.66-20.17c9.46-9.37,15.32-22.37,15.32-36.74,0-2.84-.23-5.62-.67-8.33l23.72-7.71c1.1,5.17,1.69,10.54,1.69,16.04,0,22.6-9.81,42.91-25.4,56.91Zm-74.07-56.91c0-12.71,10.3-23.01,23.01-23.01,12.71,0,23.01,10.3,23.01,23.01,0,12.71-10.3,23.01-23.01,23.01-12.71,0-23.01-10.3-23.01-23.01Zm23.4,33.82c2.39,0,4.32,1.94,4.32,4.32s-1.94,4.32-4.32,4.32c-2.39,0-4.32-1.94-4.32-4.32s1.94-4.32,4.32-4.32Zm42.47-33.82c0,2.39-1.94,4.32-4.32,4.32-2.39,0-4.32-1.94-4.32-4.32,0-2.39,1.94-4.32,4.32-4.32,2.39,0,4.32,1.94,4.32,4.32Zm-7.27-15.33c-2.07,1.19-4.71,.49-5.91-1.58-1.19-2.07-.49-4.71,1.58-5.91,2.07-1.19,4.71-.49,5.91,1.58,1.19,2.07,.49,4.71-1.58,5.91Zm1.58,36.56c-1.19,2.07-3.84,2.78-5.91,1.58s-2.78-3.84-1.58-5.91c1.19-2.07,3.84-2.78,5.91-1.58,2.07,1.19,2.78,3.84,1.58,5.91Zm-21.45,13.96c-1.19-2.07-.49-4.71,1.58-5.91,2.07-1.19,4.71-.49,5.91,1.58,1.19,2.07,.49,4.71-1.58,5.91-2.07,1.19-4.71,.49-5.91-1.58Zm7.49-66.06c-1.19,2.07-3.84,2.78-5.91,1.58-2.07-1.19-2.78-3.84-1.58-5.91,1.19-2.07,3.84-2.78,5.91-1.58s2.78,3.84,1.58,5.91Zm-22.82-11.6c2.39,0,4.32,1.94,4.32,4.32,0,2.39-1.94,4.32-4.32,4.32-2.39,0-4.32-1.94-4.32-4.32,0-2.39,1.94-4.32,4.32-4.32Zm-16.91,13.18c-2.07,1.19-4.71,.49-5.91-1.58s-.49-4.71,1.58-5.91c2.07-1.19,4.71-.49,5.91,1.58,1.19,2.07,.49,4.71-1.58,5.91Zm1.58,64.48c-1.19,2.07-3.84,2.78-5.91,1.58-2.07-1.19-2.78-3.84-1.58-5.91,1.19-2.07,3.84-2.78,5.91-1.58s2.78,3.84,1.58,5.91Zm-21.45-13.96c-1.19-2.07-.49-4.71,1.58-5.91,2.07-1.19,4.71-.49,5.91,1.58s.49,4.71-1.58,5.91c-2.07,1.19-4.71,.49-5.91-1.58Zm6.84-38.29c-1.2,2.09-3.87,2.8-5.96,1.6-2.09-1.2-2.8-3.87-1.6-5.96,1.2-2.09,3.87-2.8,5.96-1.6,2.09,1.2,2.8,3.87,1.6,5.96Zm-8.94,21.42c-2.41,0-4.36-1.95-4.36-4.36,0-2.41,1.95-4.36,4.36-4.36s4.36,1.95,4.36,4.36-1.95,4.36-4.36,4.36Zm-7.71-27.63l-23.72-7.71c10.88-24.52,34.27-42.25,62.07-45.09v24.93c-16.81,2.56-30.95,13.21-38.35,27.86Zm116.12-7.71l-23.72,7.71c-7.39-14.64-21.54-25.3-38.35-27.86v-24.93c27.8,2.84,51.19,20.57,62.07,45.09Zm-31.56,97.13c-11.28,6.55-24.38,10.31-38.36,10.31-13.98,0-27.08-3.75-38.36-10.31l14.66-20.17c7.1,3.67,15.16,5.74,23.7,5.74,8.54,0,16.6-2.07,23.7-5.74l14.66,20.17Z"/></g></svg>