<?xml version="1.0" encoding="UTF-8"?><svg id="_レイヤー_2" xmlns="http://www.w3.org/2000/svg" viewBox="0 0 176.25 176.25"><defs><style>.cls-1{fill:#6d5944;}</style></defs><g id="_レイヤー_1-2"><path class="cls-1" d="M172.71,83.57l-5.49-.97c-1.04-.18-1.84-1.03-1.94-2.09-.17-1.69-.39-3.36-.66-5.01-.17-1.04,.38-2.07,1.33-2.51l5.05-2.35c1.89-.73,2.92-2.76,2.4-4.72l-.32-1.2c-.52-1.95-2.44-3.2-4.43-2.89l-5.54,.49c-1.05,.09-2.04-.52-2.41-1.51-.6-1.58-1.24-3.14-1.93-4.68-.44-.96-.17-2.1,.64-2.77l4.26-3.57c1.63-1.19,2.1-3.43,1.09-5.18l-.62-1.08c-1.01-1.75-3.18-2.46-5.03-1.64l-5.24,1.91c-.99,.36-2.1,.02-2.72-.83-.98-1.37-2.01-2.71-3.08-4.01-.67-.82-.71-1.98-.1-2.85l3.2-4.57c1.27-1.58,1.15-3.85-.28-5.28l-.88-.88c-1.43-1.43-3.71-1.55-5.28-.28l-4.57,3.2c-.87,.61-2.03,.57-2.85-.1-1.3-1.07-2.64-2.09-4.01-3.08-.86-.62-1.2-1.73-.83-2.72l1.91-5.24c.82-1.85,.11-4.02-1.64-5.03l-1.08-.62c-1.75-1.01-3.98-.54-5.18,1.09l-3.57,4.26c-.68,.81-1.81,1.07-2.77,.64-1.53-.69-3.09-1.34-4.68-1.93-.99-.37-1.61-1.36-1.51-2.41l.49-5.54c.31-2-.93-3.91-2.89-4.43l-1.2-.32c-1.95-.52-3.99,.51-4.72,2.4l-2.35,5.05c-.45,.96-1.47,1.5-2.51,1.33-1.65-.27-3.32-.49-5.01-.66-1.05-.1-1.9-.9-2.09-1.94l-.97-5.49c-.22-2.01-1.91-3.54-3.94-3.54h-1.24c-2.02,0-3.72,1.52-3.94,3.54l-.97,5.49c-.18,1.04-1.03,1.84-2.09,1.94-1.69,.17-3.36,.39-5.01,.66-1.04,.17-2.07-.38-2.51-1.33l-2.35-5.05c-.73-1.89-2.76-2.92-4.72-2.4l-1.2,.32c-1.95,.52-3.2,2.44-2.89,4.43l.49,5.54c.09,1.05-.52,2.04-1.51,2.41-1.58,.6-3.14,1.24-4.68,1.93-.96,.44-2.1,.17-2.77-.64l-3.57-4.26c-1.19-1.63-3.43-2.1-5.18-1.09l-1.08,.62c-1.75,1.01-2.46,3.18-1.64,5.03l1.91,5.24c.36,.99,.02,2.1-.83,2.72-1.37,.98-2.71,2.01-4.01,3.08-.82,.67-1.98,.71-2.85,.1l-4.57-3.2c-1.58-1.27-3.85-1.15-5.28,.28l-.88,.88c-1.43,1.43-1.55,3.71-.28,5.28l3.2,4.57c.61,.87,.57,2.03-.1,2.85-1.07,1.3-2.09,2.64-3.08,4.01-.62,.86-1.73,1.2-2.72,.83l-5.24-1.91c-1.85-.82-4.02-.11-5.03,1.64l-.62,1.08c-1.01,1.75-.54,3.98,1.09,5.18l4.26,3.57c.81,.68,1.07,1.81,.64,2.77-.69,1.53-1.34,3.09-1.93,4.68-.37,.99-1.36,1.61-2.41,1.51l-5.54-.49c-2-.31-3.91,.93-4.43,2.89l-.32,1.2c-.52,1.95,.51,3.99,2.4,4.72l5.05,2.35c.96,.45,1.5,1.47,1.33,2.51-.27,1.65-.49,3.32-.66,5.01-.1,1.05-.9,1.9-1.94,2.09l-5.49,.97c-2.01,.22-3.54,1.91-3.54,3.94v1.24c0,2.02,1.52,3.72,3.54,3.94l5.49,.97c1.04,.18,1.84,1.03,1.94,2.09,.17,1.69,.39,3.36,.66,5.01,.17,1.04-.38,2.07-1.33,2.51l-5.05,2.35c-1.89,.73-2.92,2.76-2.4,4.72l.32,1.2c.52,1.95,2.44,3.2,4.43,2.89l5.54-.49c1.05-.09,2.04,.52,2.41,1.51,.6,1.58,1.24,3.14,1.93,4.68,.44,.96,.17,2.1-.64,2.77l-4.26,3.57c-1.63,1.19-2.1,3.43-1.09,5.18l.62,1.08c1.01,1.75,3.18,2.46,5.03,1.64l5.24-1.91c.99-.36,2.1-.02,2.72,.83,.98,1.37,2.01,2.71,3.08,4.01,.67,.82,.71,1.98,.1,2.85l-3.2,4.57c-1.27,1.58-1.15,3.85,.28,5.28l.88,.88c1.43,1.43,3.71,1.55,5.28,.28l4.57-3.2c.87-.61,2.03-.57,2.85,.1,1.3,1.07,2.64,2.09,4.01,3.08,.86,.62,1.2,1.73,.83,2.72l-1.91,5.24c-.82,1.85-.11,4.02,1.64,5.03l1.08,.62c1.75,1.01,3.98,.54,5.18-1.09l3.57-4.26c.68-.81,1.81-1.07,2.77-.64,1.53,.69,3.09,1.34,4.68,1.93,.99,.37,1.61,1.36,1.51,2.41l-.49,5.54c-.31,2,.93,3.91,2.89,4.43l1.2,.32c1.95,.52,3.99-.51,4.72-2.4l2.35-5.05c.45-.96,1.47-1.5,2.51-1.33,1.65,.27,3.32,.49,5.01,.66,1.05,.1,1.9,.9,2.09,1.94l.97,5.49c.22,2.01,1.91,3.54,3.94,3.54h1.24c2.02,0,3.72-1.52,3.94-3.54l.97-5.49c.18-1.04,1.03-1.84,2.09-1.94,1.69-.17,3.36-.39,5.01-.66,1.04-.17,2.07,.38,2.51,1.33l2.35,5.05c.73,1.89,2.76,2.92,4.72,2.4l1.2-.32c1.95-.52,3.2-2.43,2.89-4.43l-.49-5.54c-.09-1.05,.52-2.04,1.51-2.41,1.58-.6,3.14-1.24,4.68-1.93,.96-.44,2.1-.17,2.77,.64l3.57,4.26c1.19,1.63,3.43,2.1,5.18,1.09l1.08-.62c1.75-1.01,2.46-3.18,1.64-5.03l-1.91-5.24c-.36-.99-.02-2.1,.83-2.72,1.37-.98,2.71-2.01,4.01-3.08,.82-.67,1.98-.71,2.85-.1l4.57,3.2c1.58,1.27,3.85,1.15,5.28-.28l.88-.88c1.43-1.43,1.55-3.71,.28-5.28l-3.2-4.57c-.61-.87-.57-2.03,.1-2.85,1.07-1.3,2.09-2.64,3.08-4.01,.62-.86,1.73-1.2,2.72-.83l5.24,1.91c1.85,.82,4.02,.11,5.03-1.64l.62-1.08c1.01-1.75,.54-3.98-1.09-5.18l-4.26-3.57c-.81-.68-1.07-1.81-.64-2.77,.69-1.53,1.34-3.09,1.93-4.68,.37-.99,1.36-1.61,2.41-1.51l5.54,.49c2,.31,3.91-.93,4.43-2.89l.32-1.2c.52-1.95-.51-3.99-2.4-4.72l-5.05-2.35c-.96-.45-1.5-1.47-1.33-2.51,.27-1.65,.49-3.32,.66-5.01,.1-1.05,.9-1.9,1.94-2.09l5.49-.97c2.01-.22,3.54-1.91,3.54-3.94v-1.24c0-2.02-1.52-3.72-3.54-3.94Zm-33.87-32.25c3.12-1.8,7.1-.73,8.9,2.39,1.8,3.12,.73,7.1-2.39,8.9-3.12,1.8-7.1,.73-8.9-2.39-1.8-3.12-.73-7.1,2.39-8.9Zm-25.2-20.43c1.8-3.12,5.79-4.18,8.9-2.39,3.12,1.8,4.18,5.79,2.39,8.9-1.8,3.12-5.79,4.18-8.9,2.39-3.12-1.8-4.18-5.79-2.39-8.9Zm-25.52-11.61c3.6,0,6.52,2.92,6.52,6.52s-2.92,6.52-6.52,6.52-6.52-2.92-6.52-6.52,2.92-6.52,6.52-6.52Zm-34.42,9.22c3.12-1.8,7.1-.73,8.9,2.39,1.8,3.12,.73,7.1-2.39,8.9-3.12,1.8-7.1,.73-8.9-2.39-1.8-3.12-.73-7.1,2.39-8.9Zm-25.2,25.2c1.8-3.12,5.79-4.18,8.9-2.39,3.12,1.8,4.18,5.79,2.39,8.9-1.8,3.12-5.79,4.18-8.9,2.39-3.12-1.8-4.18-5.79-2.39-8.9Zm-9.22,34.42c0-3.6,2.92-6.52,6.52-6.52s6.52,2.92,6.52,6.52-2.92,6.52-6.52,6.52-6.52-2.92-6.52-6.52Zm18.12,36.81c-3.12,1.8-7.1,.73-8.9-2.39-1.8-3.12-.73-7.1,2.39-8.9,3.12-1.8,7.1-.73,8.9,2.39,1.8,3.12,.73,7.1-2.39,8.9Zm25.2,20.43c-1.8,3.12-5.79,4.18-8.9,2.39-3.12-1.8-4.18-5.79-2.39-8.9,1.8-3.12,5.79-4.18,8.9-2.39,3.12,1.8,4.18,5.79,2.39,8.9Zm25.52,11.61c-3.6,0-6.52-2.92-6.52-6.52s2.92-6.52,6.52-6.52,6.52,2.92,6.52,6.52-2.92,6.52-6.52,6.52Zm34.42-9.22c-3.12,1.8-7.1,.73-8.9-2.39-1.8-3.12-.73-7.1,2.39-8.9,3.12-1.8,7.1-.73,8.9,2.39,1.8,3.12,.73,7.1-2.39,8.9Zm-34.42-10.61c-27.06,0-49-21.94-49-49s21.94-49,49-49,49,21.94,49,49-21.94,49-49,49Zm59.62-14.58c-1.8,3.12-5.79,4.18-8.9,2.39-3.12-1.8-4.18-5.79-2.39-8.9,1.8-3.12,5.79-4.18,8.9-2.39,3.12,1.8,4.18,5.79,2.39,8.9Zm2.71-27.9c-3.6,0-6.52-2.92-6.52-6.52s2.92-6.52,6.52-6.52,6.52,2.92,6.52,6.52-2.92,6.52-6.52,6.52Z"/></g></svg>