<?xml version="1.0" encoding="UTF-8"?><svg id="_レイヤー_2" xmlns="http://www.w3.org/2000/svg" viewBox="0 0 118.41 118.41"><defs><style>.cls-1{fill:#a88663;}</style></defs><g id="_レイヤー_1-2"><path class="cls-1" d="M0,58.79v.84c0,1.36,1.02,2.5,2.37,2.64l4.89,.86c.14,1.94,.4,3.85,.75,5.73l-4.49,2.09c-1.27,.49-1.96,1.86-1.61,3.17l.22,.81c.35,1.31,1.64,2.15,2.98,1.94l4.93-.43c.64,1.83,1.38,3.62,2.21,5.35l-3.79,3.18c-1.1,.8-1.41,2.3-.73,3.48l.42,.72c.68,1.18,2.14,1.65,3.38,1.1l4.66-1.7c1.09,1.59,2.26,3.12,3.52,4.58l-2.85,4.07c-.85,1.06-.77,2.59,.19,3.55l.59,.59c.96,.96,2.49,1.04,3.55,.19l4.07-2.85c1.46,1.26,2.99,2.43,4.58,3.52l-1.7,4.66c-.55,1.24-.07,2.7,1.1,3.38l.72,.42c1.18,.68,2.68,.36,3.48-.73l3.18-3.79c1.73,.83,3.52,1.57,5.35,2.21l-.43,4.93c-.21,1.34,.63,2.63,1.94,2.98l.81,.22c1.31,.35,2.68-.34,3.17-1.61l2.09-4.49c1.88,.35,3.79,.61,5.73,.75l.86,4.89c.15,1.35,1.29,2.37,2.64,2.37h.84c1.36,0,2.5-1.02,2.64-2.37l.86-4.89c1.94-.14,3.85-.4,5.73-.75l2.09,4.49c.49,1.27,1.86,1.96,3.17,1.61l.81-.22c1.31-.35,2.15-1.64,1.94-2.98l-.43-4.93c1.83-.64,3.62-1.38,5.35-2.21l3.18,3.79c.8,1.1,2.3,1.41,3.48,.73l.72-.42c1.18-.68,1.65-2.14,1.1-3.38l-1.7-4.66c1.59-1.09,3.12-2.26,4.58-3.52l4.07,2.85c1.06,.85,2.59,.77,3.55-.19l.59-.59c.96-.96,1.04-2.49,.19-3.55l-2.85-4.07c1.26-1.46,2.43-2.99,3.52-4.58l4.66,1.7c1.24,.55,2.7,.07,3.38-1.1l.42-.72c.68-1.18,.36-2.68-.73-3.48l-3.79-3.18c.83-1.73,1.57-3.52,2.21-5.35l4.93,.43c1.34,.21,2.63-.63,2.98-1.94l.22-.81c.35-1.31-.34-2.68-1.61-3.17l-4.49-2.09c.35-1.88,.61-3.79,.75-5.73l4.89-.86c1.35-.15,2.37-1.29,2.37-2.64v-.84c0-1.36-1.02-2.5-2.37-2.64l-4.89-.86c-.14-1.94-.4-3.85-.75-5.73l4.49-2.09c1.27-.49,1.96-1.86,1.61-3.17l-.22-.81c-.35-1.31-1.64-2.15-2.98-1.94l-4.93,.43c-.64-1.83-1.38-3.62-2.21-5.35l3.79-3.18c1.1-.8,1.41-2.3,.73-3.48l-.42-.72c-.68-1.18-2.14-1.65-3.38-1.1l-4.66,1.7c-1.09-1.59-2.26-3.12-3.52-4.58l2.85-4.07c.85-1.06,.77-2.59-.19-3.55l-.59-.59c-.96-.96-2.49-1.04-3.55-.19l-4.07,2.85c-1.46-1.26-2.99-2.43-4.58-3.52l1.7-4.66c.55-1.24,.07-2.7-1.1-3.38l-.72-.42c-1.18-.68-2.68-.36-3.48,.73l-3.18,3.79c-1.73-.83-3.52-1.57-5.35-2.21l.43-4.93c.21-1.34-.63-2.63-1.94-2.98l-.81-.22c-1.31-.35-2.68,.34-3.17,1.61l-2.09,4.49c-1.88-.35-3.79-.61-5.73-.75l-.86-4.89C62.12,1.02,60.98,0,59.62,0h-.84c-1.36,0-2.5,1.02-2.64,2.37l-.86,4.89c-1.94,.14-3.85,.4-5.73,.75l-2.09-4.49c-.49-1.27-1.86-1.96-3.17-1.61l-.81,.22c-1.31,.35-2.15,1.64-1.94,2.98l.43,4.93c-1.83,.64-3.62,1.38-5.35,2.21l-3.18-3.79c-.8-1.1-2.3-1.41-3.48-.73l-.72,.42c-1.18,.68-1.65,2.14-1.1,3.38l1.7,4.66c-1.59,1.09-3.12,2.26-4.58,3.52l-4.07-2.85c-1.06-.85-2.59-.77-3.55,.19l-.59,.59c-.96,.96-1.04,2.49-.19,3.55l2.85,4.07c-1.26,1.46-2.43,2.99-3.52,4.58l-4.66-1.7c-1.24-.55-2.7-.07-3.38,1.1l-.42,.72c-.68,1.18-.36,2.68,.73,3.48l3.79,3.18c-.83,1.73-1.57,3.52-2.21,5.35l-4.93-.43c-1.34-.21-2.63,.63-2.98,1.94l-.22,.81c-.35,1.31,.34,2.68,1.61,3.17l4.49,2.09c-.35,1.88-.61,3.79-.75,5.73l-4.89,.86C1.02,56.29,0,57.43,0,58.79Zm59.2-10.36c5.95,0,10.78,4.83,10.78,10.78,0,5.95-4.83,10.78-10.78,10.78-5.95,0-10.78-4.83-10.78-10.78,0-5.95,4.83-10.78,10.78-10.78Z"/></g></svg>