<?xml version="1.0" encoding="UTF-8"?><svg id="_レイヤー_2" xmlns="http://www.w3.org/2000/svg" viewBox="0 0 98.25 98.25"><defs><style>.cls-1{fill:#a88663;}</style></defs><g id="_レイヤー_1-2"><path class="cls-1" d="M96.28,46.58l-3.06-.54c-.58-.1-1.02-.58-1.08-1.16-.09-.94-.21-1.87-.37-2.79-.1-.58,.21-1.15,.74-1.4l2.81-1.31c1.05-.41,1.63-1.54,1.34-2.63l-.18-.67c-.29-1.09-1.36-1.78-2.47-1.61l-3.09,.27c-.59,.05-1.14-.29-1.34-.84-.33-.88-.69-1.75-1.08-2.61-.24-.54-.1-1.17,.35-1.55l2.37-1.99c.91-.67,1.17-1.91,.61-2.89l-.35-.6c-.56-.98-1.77-1.37-2.8-.92l-2.92,1.06c-.55,.2-1.17,.01-1.52-.47-.55-.76-1.12-1.51-1.72-2.23-.37-.46-.4-1.1-.06-1.59l1.78-2.55c.71-.88,.64-2.15-.16-2.95l-.49-.49c-.8-.8-2.07-.87-2.95-.16l-2.55,1.78c-.48,.34-1.13,.32-1.59-.06-.73-.6-1.47-1.17-2.23-1.72-.48-.34-.67-.96-.47-1.52l1.06-2.92c.46-1.03,.06-2.24-.92-2.8l-.6-.35c-.98-.56-2.22-.3-2.89,.61l-1.99,2.37c-.38,.45-1.01,.6-1.55,.35-.85-.39-1.72-.75-2.61-1.08-.55-.21-.89-.76-.84-1.34l.27-3.09c.17-1.11-.52-2.18-1.61-2.47l-.67-.18c-1.09-.29-2.22,.28-2.63,1.34l-1.31,2.81c-.25,.53-.82,.84-1.4,.74-.92-.15-1.85-.27-2.79-.37-.59-.06-1.06-.5-1.16-1.08l-.54-3.06c-.12-1.12-1.07-1.97-2.19-1.97h-.69c-1.13,0-2.07,.85-2.19,1.97l-.54,3.06c-.1,.58-.58,1.02-1.16,1.08-.94,.09-1.87,.21-2.79,.37-.58,.1-1.15-.21-1.4-.74l-1.31-2.81c-.41-1.05-1.54-1.63-2.63-1.34l-.67,.18c-1.09,.29-1.78,1.36-1.61,2.47l.27,3.09c.05,.59-.29,1.14-.84,1.34-.88,.33-1.75,.69-2.61,1.08-.54,.24-1.17,.1-1.55-.35l-1.99-2.37c-.67-.91-1.91-1.17-2.89-.61l-.6,.35c-.98,.56-1.37,1.77-.92,2.8l1.06,2.92c.2,.55,.01,1.17-.47,1.52-.76,.55-1.51,1.12-2.23,1.72-.46,.37-1.1,.4-1.59,.06l-2.55-1.78c-.88-.71-2.15-.64-2.95,.16l-.49,.49c-.8,.8-.87,2.07-.16,2.95l1.78,2.55c.34,.48,.32,1.13-.06,1.59-.6,.73-1.17,1.47-1.72,2.23-.34,.48-.96,.67-1.52,.47l-2.92-1.06c-1.03-.46-2.24-.06-2.8,.92l-.35,.6c-.56,.98-.3,2.22,.61,2.89l2.37,1.99c.45,.38,.6,1.01,.35,1.55-.39,.85-.75,1.72-1.08,2.61-.21,.55-.76,.89-1.34,.84l-3.09-.27c-1.11-.17-2.18,.52-2.47,1.61l-.18,.67c-.29,1.09,.28,2.22,1.34,2.63l2.81,1.31c.53,.25,.84,.82,.74,1.4-.15,.92-.27,1.85-.37,2.79-.06,.59-.5,1.06-1.08,1.16l-3.06,.54c-1.12,.12-1.97,1.07-1.97,2.19v.69c0,1.13,.85,2.07,1.97,2.19l3.06,.54c.58,.1,1.02,.58,1.08,1.16,.09,.94,.21,1.87,.37,2.79,.1,.58-.21,1.15-.74,1.4l-2.81,1.31c-1.05,.41-1.63,1.54-1.34,2.63l.18,.67c.29,1.09,1.36,1.78,2.47,1.61l3.09-.27c.59-.05,1.14,.29,1.34,.84,.33,.88,.69,1.75,1.08,2.61,.24,.54,.1,1.17-.35,1.55l-2.37,1.99c-.91,.67-1.17,1.91-.61,2.89l.35,.6c.56,.98,1.77,1.37,2.8,.92l2.92-1.06c.55-.2,1.17-.01,1.52,.47,.55,.76,1.12,1.51,1.72,2.23,.37,.46,.4,1.1,.06,1.59l-1.78,2.55c-.71,.88-.64,2.15,.16,2.95l.49,.49c.8,.8,2.07,.87,2.95,.16l2.55-1.78c.48-.34,1.13-.32,1.59,.06,.73,.6,1.47,1.17,2.23,1.72,.48,.34,.67,.96,.47,1.52l-1.06,2.92c-.46,1.03-.06,2.24,.92,2.8l.6,.35c.98,.56,2.22,.3,2.89-.61l1.99-2.37c.38-.45,1.01-.6,1.55-.35,.85,.39,1.72,.75,2.61,1.08,.55,.21,.89,.76,.84,1.34l-.27,3.09c-.17,1.11,.52,2.18,1.61,2.47l.67,.18c1.09,.29,2.22-.28,2.63-1.34l1.31-2.81c.25-.53,.82-.84,1.4-.74,.92,.15,1.85,.27,2.79,.37,.59,.06,1.06,.5,1.16,1.08l.54,3.06c.12,1.12,1.07,1.97,2.19,1.97h.69c1.13,0,2.07-.85,2.19-1.97l.54-3.06c.1-.58,.58-1.02,1.16-1.08,.94-.09,1.87-.21,2.79-.37,.58-.1,1.15,.21,1.4,.74l1.31,2.81c.41,1.05,1.54,1.63,2.63,1.34l.67-.18c1.09-.29,1.78-1.36,1.61-2.47l-.27-3.09c-.05-.59,.29-1.14,.84-1.34,.88-.33,1.75-.69,2.61-1.08,.54-.24,1.17-.1,1.55,.35l1.99,2.37c.67,.91,1.91,1.17,2.89,.61l.6-.35c.98-.56,1.37-1.77,.92-2.8l-1.06-2.92c-.2-.55-.01-1.17,.47-1.52,.76-.55,1.51-1.12,2.23-1.72,.46-.37,1.1-.4,1.59-.06l2.55,1.78c.88,.71,2.15,.64,2.95-.16l.49-.49c.8-.8,.87-2.07,.16-2.95l-1.78-2.55c-.34-.48-.32-1.13,.06-1.59,.6-.73,1.17-1.47,1.72-2.23,.34-.48,.96-.67,1.52-.47l2.92,1.06c1.03,.46,2.24,.06,2.8-.92l.35-.6c.56-.98,.3-2.22-.61-2.89l-2.37-1.99c-.45-.38-.6-1.01-.35-1.55,.39-.85,.75-1.72,1.08-2.61,.21-.55,.76-.89,1.34-.84l3.09,.27c1.11,.17,2.18-.52,2.47-1.61l.18-.67c.29-1.09-.28-2.22-1.34-2.63l-2.81-1.31c-.53-.25-.84-.82-.74-1.4,.15-.92,.27-1.85,.37-2.79,.06-.59,.5-1.06,1.08-1.16l3.06-.54c1.12-.12,1.97-1.07,1.97-2.19v-.69c0-1.13-.85-2.07-1.97-2.19Zm-18.88-17.98c1.74-1,3.96-.41,4.96,1.33,1,1.74,.41,3.96-1.33,4.96-1.74,1-3.96,.41-4.96-1.33-1-1.74-.41-3.96,1.33-4.96Zm-14.05-11.39c1-1.74,3.22-2.33,4.96-1.33,1.74,1,2.33,3.22,1.33,4.96-1,1.74-3.22,2.33-4.96,1.33-1.74-1-2.33-3.22-1.33-4.96Zm-14.22-6.47c2.01,0,3.63,1.63,3.63,3.63s-1.63,3.63-3.63,3.63-3.63-1.63-3.63-3.63,1.63-3.63,3.63-3.63Zm-19.19,5.14c1.74-1,3.96-.41,4.96,1.33,1,1.74,.41,3.96-1.33,4.96-1.74,1-3.96,.41-4.96-1.33-1-1.74-.41-3.96,1.33-4.96Zm-14.05,14.05c1-1.74,3.22-2.33,4.96-1.33,1.74,1,2.33,3.22,1.33,4.96-1,1.74-3.22,2.33-4.96,1.33-1.74-1-2.33-3.22-1.33-4.96Zm-5.14,19.19c0-2.01,1.63-3.63,3.63-3.63s3.63,1.63,3.63,3.63-1.63,3.63-3.63,3.63-3.63-1.63-3.63-3.63Zm10.1,20.52c-1.74,1-3.96,.41-4.96-1.33-1-1.74-.41-3.96,1.33-4.96,1.74-1,3.96-.41,4.96,1.33,1,1.74,.41,3.96-1.33,4.96Zm14.05,11.39c-1,1.74-3.22,2.33-4.96,1.33-1.74-1-2.33-3.22-1.33-4.96,1-1.74,3.22-2.33,4.96-1.33,1.74,1,2.33,3.22,1.33,4.96Zm14.22,6.47c-2.01,0-3.63-1.63-3.63-3.63s1.63-3.63,3.63-3.63,3.63,1.63,3.63,3.63-1.63,3.63-3.63,3.63Zm19.19-5.14c-1.74,1-3.96,.41-4.96-1.33-1-1.74-.41-3.96,1.33-4.96,1.74-1,3.96-.41,4.96,1.33,1,1.74,.41,3.96-1.33,4.96Zm-19.19-5.92c-15.09,0-27.32-12.23-27.32-27.32s12.23-27.32,27.32-27.32,27.32,12.23,27.32,27.32-12.23,27.32-27.32,27.32Zm33.23-8.13c-1,1.74-3.22,2.33-4.96,1.33-1.74-1-2.33-3.22-1.33-4.96,1-1.74,3.22-2.33,4.96-1.33,1.74,1,2.33,3.22,1.33,4.96Zm1.51-15.55c-2.01,0-3.63-1.63-3.63-3.63s1.63-3.63,3.63-3.63,3.63,1.63,3.63,3.63-1.63,3.63-3.63,3.63Z"/></g></svg>