<?xml version="1.0" encoding="UTF-8"?><svg id="_レイヤー_2" xmlns="http://www.w3.org/2000/svg" viewBox="0 0 229.24 229.24"><defs><style>.cls-1{fill:#a88663;}</style></defs><g id="_レイヤー_1-2"><path class="cls-1" d="M0,113.81v1.62c0,2.63,1.98,4.84,4.6,5.12l7.14,1.26c1.35,.24,2.39,1.35,2.52,2.71,.21,2.19,.5,4.37,.85,6.52,.22,1.35-.49,2.69-1.73,3.27l-6.56,3.06c-2.45,.95-3.8,3.59-3.12,6.14l.42,1.56c.68,2.54,3.17,4.16,5.77,3.76l7.2-.63c1.37-.12,2.65,.68,3.14,1.97,.77,2.06,1.61,4.09,2.52,6.08,.57,1.25,.22,2.73-.83,3.61l-5.54,4.65c-2.12,1.55-2.74,4.46-1.42,6.73l.81,1.4c1.32,2.28,4.14,3.2,6.54,2.14l6.81-2.48c1.29-.47,2.74-.03,3.54,1.09,1.28,1.78,2.61,3.52,4,5.21,.87,1.06,.92,2.58,.14,3.7l-4.16,5.94c-1.65,2.05-1.49,5.01,.37,6.87l1.14,1.14c1.86,1.86,4.82,2.02,6.87,.37l5.94-4.16c1.13-.79,2.64-.74,3.7,.14,1.69,1.39,3.43,2.72,5.21,4,1.11,.8,1.56,2.25,1.09,3.54l-2.48,6.81c-1.06,2.41-.14,5.23,2.14,6.54l1.4,.81c2.28,1.32,5.18,.7,6.73-1.42l4.65-5.54c.88-1.05,2.36-1.39,3.61-.83,1.99,.9,4.02,1.74,6.08,2.52,1.29,.48,2.09,1.77,1.97,3.14l-.63,7.2c-.4,2.6,1.21,5.09,3.76,5.77l1.56,.42c2.54,.68,5.19-.66,6.14-3.12l3.06-6.56c.58-1.24,1.91-1.96,3.27-1.73,2.15,.35,4.32,.64,6.52,.85,1.37,.13,2.47,1.17,2.71,2.52l1.26,7.14c.28,2.62,2.49,4.6,5.12,4.6h1.62c2.63,0,4.84-1.98,5.12-4.6l1.26-7.14c.24-1.35,1.35-2.39,2.71-2.52,2.19-.21,4.37-.5,6.52-.85,1.35-.22,2.69,.49,3.27,1.73l3.06,6.56c.95,2.45,3.59,3.8,6.14,3.12l1.56-.42c2.54-.68,4.16-3.17,3.76-5.77l-.63-7.2c-.12-1.37,.68-2.65,1.97-3.14,2.06-.77,4.09-1.61,6.08-2.52,1.25-.57,2.73-.22,3.61,.83l4.65,5.54c1.55,2.12,4.46,2.74,6.73,1.42l1.4-.81c2.28-1.32,3.2-4.14,2.14-6.54l-2.48-6.81c-.47-1.29-.03-2.74,1.09-3.54,1.78-1.28,3.52-2.61,5.21-4,1.06-.87,2.58-.92,3.7-.14l5.94,4.16c2.05,1.65,5.01,1.49,6.87-.37l1.14-1.14c1.86-1.86,2.02-4.82,.37-6.87l-4.16-5.94c-.79-1.13-.74-2.64,.14-3.7,1.39-1.69,2.72-3.43,4-5.21,.8-1.12,2.25-1.56,3.54-1.09l6.81,2.48c2.41,1.06,5.23,.14,6.54-2.14l.81-1.4c1.32-2.28,.7-5.18-1.42-6.73l-5.54-4.65c-1.05-.88-1.39-2.36-.83-3.61,.9-1.99,1.74-4.02,2.52-6.08,.48-1.29,1.77-2.09,3.14-1.97l7.2,.63c2.6,.4,5.09-1.21,5.77-3.76l.42-1.56c.68-2.54-.66-5.19-3.12-6.14l-6.56-3.06c-1.24-.58-1.96-1.91-1.73-3.27,.35-2.15,.64-4.32,.85-6.52,.13-1.37,1.17-2.47,2.52-2.71l7.14-1.26c2.62-.28,4.6-2.49,4.6-5.12v-1.62c0-2.63-1.98-4.84-4.6-5.12l-7.14-1.26c-1.35-.24-2.39-1.35-2.52-2.71-.21-2.19-.5-4.37-.85-6.52-.22-1.35,.49-2.69,1.73-3.27l6.56-3.06c2.45-.95,3.8-3.59,3.12-6.14l-.42-1.56c-.68-2.54-3.17-4.16-5.77-3.76l-7.2,.63c-1.37,.12-2.65-.68-3.14-1.97-.77-2.06-1.61-4.09-2.52-6.08-.57-1.25-.22-2.73,.83-3.61l5.54-4.65c2.12-1.55,2.74-4.46,1.42-6.73l-.81-1.4c-1.32-2.28-4.14-3.2-6.54-2.14l-6.81,2.48c-1.29,.47-2.74,.03-3.54-1.09-1.28-1.78-2.61-3.52-4-5.21-.87-1.06-.92-2.58-.14-3.7l4.16-5.94c1.65-2.05,1.49-5.01-.37-6.87l-1.14-1.14c-1.86-1.86-4.82-2.02-6.87-.37l-5.94,4.16c-1.13,.79-2.64,.74-3.7-.14-1.69-1.39-3.43-2.72-5.21-4-1.11-.8-1.56-2.25-1.09-3.54l2.48-6.81c1.06-2.41,.14-5.23-2.14-6.54l-1.4-.81c-2.28-1.32-5.18-.7-6.73,1.42l-4.65,5.54c-.88,1.05-2.36,1.39-3.61,.83-1.99-.9-4.02-1.74-6.08-2.52-1.29-.48-2.09-1.77-1.97-3.14l.63-7.2c.4-2.6-1.21-5.09-3.76-5.77l-1.56-.42c-2.54-.68-5.19,.66-6.14,3.12l-3.06,6.56c-.58,1.24-1.91,1.96-3.27,1.73-2.15-.35-4.32-.64-6.52-.85-1.37-.13-2.47-1.17-2.71-2.52l-1.26-7.14C120.27,1.98,118.06,0,115.43,0h-1.62c-2.63,0-4.84,1.98-5.12,4.6l-1.26,7.14c-.24,1.35-1.35,2.39-2.71,2.52-2.19,.21-4.37,.5-6.52,.85-1.35,.22-2.69-.49-3.27-1.73l-3.06-6.56c-.95-2.45-3.59-3.8-6.14-3.12l-1.56,.42c-2.54,.68-4.16,3.17-3.76,5.77l.63,7.2c.12,1.37-.68,2.65-1.97,3.14-2.06,.77-4.09,1.61-6.08,2.52-1.25,.57-2.73,.22-3.61-.83l-4.65-5.54c-1.55-2.12-4.46-2.74-6.73-1.42l-1.4,.81c-2.28,1.32-3.2,4.14-2.14,6.54l2.48,6.81c.47,1.29,.03,2.74-1.09,3.54-1.78,1.28-3.52,2.61-5.21,4-1.06,.87-2.58,.92-3.7,.14l-5.94-4.16c-2.05-1.65-5.01-1.49-6.87,.37l-1.14,1.14c-1.86,1.86-2.02,4.82-.37,6.87l4.16,5.94c.79,1.13,.74,2.64-.14,3.7-1.39,1.69-2.72,3.43-4,5.21-.8,1.11-2.25,1.56-3.54,1.09l-6.81-2.48c-2.41-1.06-5.23-.14-6.54,2.14l-.81,1.4c-1.32,2.28-.7,5.18,1.42,6.73l5.54,4.65c1.05,.88,1.39,2.36,.83,3.61-.9,1.99-1.74,4.02-2.52,6.08-.48,1.29-1.77,2.09-3.14,1.97l-7.2-.63c-2.6-.4-5.09,1.21-5.77,3.76l-.42,1.56c-.68,2.54,.66,5.19,3.12,6.14l6.56,3.06c1.24,.58,1.96,1.91,1.73,3.27-.35,2.15-.64,4.32-.85,6.52-.13,1.37-1.17,2.47-2.52,2.71l-7.14,1.26C1.98,108.97,0,111.18,0,113.81Zm35.46,8.67h37.12c3.69,19.87,21.11,34.91,42.04,34.91,20.93,0,38.35-15.04,42.04-34.91h37.12c-3.95,40.24-37.88,71.69-79.16,71.69-41.28,0-75.21-31.44-79.16-71.69Zm79.16,1.69c-5.27,0-9.55-4.28-9.55-9.55s4.28-9.55,9.55-9.55c5.27,0,9.55,4.28,9.55,9.55s-4.28,9.55-9.55,9.55Zm-79.16-17.41c3.95-40.24,37.88-71.69,79.16-71.69,41.28,0,75.21,31.44,79.16,71.69h-37.12c-3.69-19.87-21.11-34.91-42.04-34.91-20.93,0-38.35,15.04-42.04,34.91H35.46Z"/></g></svg>