<?xml version="1.0" encoding="UTF-8"?><svg id="_レイヤー_2" xmlns="http://www.w3.org/2000/svg" viewBox="0 0 184.64 165.86"><defs><style>.cls-1{fill:#a88663;}</style></defs><g id="_レイヤー_1-2"><path class="cls-1" d="M0,77.96v9.95c0,1.94,1.51,3.55,3.45,3.67l6.32,.38c1.88,.11,3.42,1.53,3.71,3.4,3.12,19.96,13.64,37.48,28.67,49.64,1.47,1.19,1.93,3.22,1.09,4.91l-2.83,5.67c-.87,1.74-.23,3.85,1.45,4.82l8.61,4.97c1.68,.97,3.83,.47,4.9-1.15l3.48-5.27c1.04-1.58,3.04-2.19,4.8-1.51,8.9,3.43,18.56,5.31,28.66,5.31,10.1,0,19.77-1.88,28.66-5.31,1.76-.68,3.76-.06,4.8,1.51l3.48,5.27c1.07,1.62,3.22,2.13,4.9,1.15l8.61-4.97c1.68-.97,2.32-3.08,1.45-4.82l-2.83-5.67c-.84-1.69-.38-3.73,1.09-4.91,15.03-12.16,25.54-29.68,28.67-49.64,.29-1.87,1.83-3.28,3.71-3.4l6.32-.38c1.94-.12,3.45-1.72,3.45-3.67v-9.95c0-1.94-1.51-3.55-3.45-3.67l-6.32-.38c-1.88-.11-3.42-1.53-3.71-3.4-3.12-19.96-13.64-37.48-28.67-49.64-1.47-1.19-1.93-3.22-1.09-4.91l2.83-5.67c.87-1.74,.23-3.85-1.45-4.82L134.17,.49c-1.68-.97-3.83-.47-4.9,1.15l-3.48,5.27c-1.04,1.58-3.04,2.19-4.8,1.51-8.9-3.43-18.56-5.31-28.66-5.31-10.1,0-19.77,1.88-28.66,5.31-1.76,.68-3.76,.06-4.8-1.51l-3.48-5.27c-1.07-1.62-3.22-2.13-4.9-1.16l-8.61,4.97c-1.68,.97-2.32,3.08-1.45,4.82l2.83,5.67c.84,1.69,.38,3.73-1.09,4.91-15.03,12.16-25.54,29.68-28.67,49.64-.29,1.87-1.83,3.28-3.71,3.4l-6.32,.38C1.51,74.41,0,76.02,0,77.96ZM85.27,19.27v7.62c-27.87,3.47-49.43,27.23-49.43,56.04,0,6.87,1.23,13.46,3.48,19.55l-6.64,3.84c-2.84-7.24-4.4-15.13-4.4-23.38,0-32.99,24.95-60.15,57-63.66Zm45.23,74.65l-16.37-9.45c.04-.51,.06-1.02,.06-1.54,0-9.61-6.2-17.77-14.82-20.7v-18.4c18.58,3.33,32.68,19.57,32.68,39.1,0,3.81-.54,7.5-1.54,10.99Zm-6.26,12.66c-7.24,9.75-18.84,16.08-31.92,16.08s-24.68-6.32-31.92-16.08l15.65-9.04c4,4.45,9.81,7.26,16.26,7.26,6.46,0,12.26-2.8,16.26-7.26l15.65,9.04Zm-70.1-12.66c-1-3.49-1.54-7.18-1.54-10.99,0-19.53,14.1-35.77,32.68-39.1v18.4c-8.62,2.93-14.82,11.09-14.82,20.7,0,.52,.02,1.03,.06,1.54l-16.37,9.45Zm102.23-10.99c0,8.25-1.56,16.14-4.4,23.38l-6.64-3.84c2.25-6.09,3.48-12.68,3.48-19.55,0-28.8-21.56-52.57-49.43-56.04v-7.62c32.06,3.51,57,30.67,57,63.66Zm-64.05,64.05c-22.09,0-41.56-11.18-53.07-28.19l6.58-3.8c10.19,14.75,27.21,24.41,46.49,24.41s36.3-9.67,46.49-24.41l6.58,3.8c-11.51,17.01-30.99,28.19-53.07,28.19Z"/></g></svg>