<?xml version="1.0" encoding="UTF-8"?><svg id="_レイヤー_2" xmlns="http://www.w3.org/2000/svg" viewBox="0 0 112.82 112.82"><defs><style>.cls-1{fill:#a88663;}</style></defs><g id="_レイヤー_1-2"><path class="cls-1" d="M0,56.01v.8c0,1.29,.98,2.38,2.26,2.52l3.51,.62c.67,.12,1.17,.66,1.24,1.34,.11,1.08,.25,2.15,.42,3.21,.11,.67-.24,1.32-.85,1.61l-3.23,1.51c-1.21,.47-1.87,1.77-1.53,3.02l.21,.77c.34,1.25,1.56,2.05,2.84,1.85l3.54-.31c.67-.06,1.31,.34,1.54,.97,.38,1.01,.79,2.01,1.24,2.99,.28,.62,.11,1.34-.41,1.78l-2.72,2.29c-1.05,.76-1.35,2.19-.7,3.31l.4,.69c.65,1.12,2.04,1.57,3.22,1.05l3.35-1.22c.63-.23,1.35-.01,1.74,.53,.63,.88,1.29,1.73,1.97,2.56,.43,.52,.45,1.27,.07,1.82l-2.05,2.92c-.81,1.01-.73,2.47,.18,3.38l.56,.56c.92,.92,2.37,.99,3.38,.18l2.92-2.05c.55-.39,1.3-.36,1.82,.07,.83,.68,1.69,1.34,2.56,1.97,.55,.39,.77,1.11,.53,1.74l-1.22,3.35c-.52,1.18-.07,2.57,1.05,3.22l.69,.4c1.12,.65,2.55,.35,3.31-.7l2.29-2.73c.43-.52,1.16-.69,1.78-.41,.98,.44,1.98,.86,2.99,1.24,.63,.24,1.03,.87,.97,1.54l-.31,3.54c-.2,1.28,.6,2.5,1.85,2.84l.77,.21c1.25,.34,2.55-.33,3.02-1.53l1.51-3.23c.29-.61,.94-.96,1.61-.85,1.06,.17,2.13,.31,3.21,.42,.67,.07,1.22,.57,1.34,1.24l.62,3.51c.14,1.29,1.23,2.26,2.52,2.26h.8c1.29,0,2.38-.98,2.52-2.26l.62-3.51c.12-.67,.66-1.17,1.34-1.24,1.08-.11,2.15-.25,3.21-.42,.67-.11,1.32,.24,1.61,.85l1.51,3.23c.47,1.21,1.77,1.87,3.02,1.53l.77-.21c1.25-.34,2.05-1.56,1.85-2.84l-.31-3.54c-.06-.67,.34-1.31,.97-1.54,1.01-.38,2.01-.79,2.99-1.24,.62-.28,1.34-.11,1.78,.41l2.29,2.73c.76,1.05,2.19,1.35,3.31,.7l.69-.4c1.12-.65,1.57-2.04,1.05-3.22l-1.22-3.35c-.23-.63-.01-1.35,.53-1.74,.88-.63,1.73-1.29,2.56-1.97,.52-.43,1.27-.45,1.82-.07l2.92,2.05c1.01,.81,2.47,.73,3.38-.18l.56-.56c.92-.92,.99-2.37,.18-3.38l-2.05-2.92c-.39-.55-.36-1.3,.07-1.82,.68-.83,1.34-1.69,1.97-2.56,.39-.55,1.11-.77,1.74-.53l3.35,1.22c1.18,.52,2.57,.07,3.22-1.05l.4-.69c.65-1.12,.35-2.55-.7-3.31l-2.72-2.29c-.52-.43-.69-1.16-.41-1.78,.44-.98,.86-1.98,1.24-2.99,.24-.63,.87-1.03,1.54-.97l3.54,.31c1.28,.2,2.5-.6,2.84-1.85l.21-.77c.34-1.25-.33-2.55-1.53-3.02l-3.23-1.51c-.61-.29-.96-.94-.85-1.61,.17-1.06,.31-2.13,.42-3.21,.07-.67,.57-1.22,1.24-1.34l3.51-.62c1.29-.14,2.26-1.23,2.26-2.52v-.8c0-1.29-.98-2.38-2.26-2.52l-3.51-.62c-.67-.12-1.17-.66-1.24-1.34-.11-1.08-.25-2.15-.42-3.21-.11-.67,.24-1.32,.85-1.61l3.23-1.51c1.21-.47,1.87-1.77,1.53-3.02l-.21-.77c-.34-1.25-1.56-2.05-2.84-1.85l-3.54,.31c-.67,.06-1.31-.34-1.54-.97-.38-1.01-.79-2.01-1.24-2.99-.28-.62-.11-1.34,.41-1.78l2.72-2.29c1.05-.76,1.35-2.19,.7-3.31l-.4-.69c-.65-1.12-2.04-1.57-3.22-1.05l-3.35,1.22c-.63,.23-1.35,.01-1.74-.53-.63-.88-1.29-1.73-1.97-2.56-.43-.52-.45-1.27-.07-1.82l2.05-2.92c.81-1.01,.73-2.47-.18-3.38l-.56-.56c-.92-.92-2.37-.99-3.38-.18l-2.92,2.05c-.55,.39-1.3,.36-1.82-.07-.83-.68-1.69-1.34-2.56-1.97-.55-.39-.77-1.11-.53-1.74l1.22-3.35c.52-1.18,.07-2.57-1.05-3.22l-.69-.4c-1.12-.65-2.55-.35-3.31,.7l-2.29,2.72c-.43,.52-1.16,.69-1.78,.41-.98-.44-1.98-.86-2.99-1.24-.63-.24-1.03-.87-.97-1.54l.31-3.54c.2-1.28-.6-2.5-1.85-2.84l-.77-.21c-1.25-.34-2.55,.33-3.02,1.53l-1.51,3.23c-.29,.61-.94,.96-1.61,.85-1.06-.17-2.13-.31-3.21-.42-.67-.07-1.22-.57-1.34-1.24l-.62-3.51C59.19,.98,58.1,0,56.81,0h-.8c-1.29,0-2.38,.98-2.52,2.26l-.62,3.51c-.12,.67-.66,1.17-1.34,1.24-1.08,.11-2.15,.25-3.21,.42-.67,.11-1.32-.24-1.61-.85l-1.51-3.23c-.47-1.21-1.77-1.87-3.02-1.53l-.77,.21c-1.25,.34-2.05,1.56-1.85,2.84l.31,3.54c.06,.67-.34,1.31-.97,1.54-1.01,.38-2.01,.79-2.99,1.24-.62,.28-1.34,.11-1.78-.41l-2.29-2.72c-.76-1.05-2.19-1.35-3.31-.7l-.69,.4c-1.12,.65-1.57,2.04-1.05,3.22l1.22,3.35c.23,.63,.01,1.35-.53,1.74-.88,.63-1.73,1.29-2.56,1.97-.52,.43-1.27,.45-1.82,.07l-2.92-2.05c-1.01-.81-2.47-.73-3.38,.18l-.56,.56c-.92,.92-.99,2.37-.18,3.38l2.05,2.92c.39,.55,.36,1.3-.07,1.82-.68,.83-1.34,1.69-1.97,2.56-.39,.55-1.11,.77-1.74,.53l-3.35-1.22c-1.18-.52-2.57-.07-3.22,1.05l-.4,.69c-.65,1.12-.35,2.55,.7,3.31l2.72,2.29c.52,.43,.69,1.16,.41,1.78-.44,.98-.86,1.98-1.24,2.99-.24,.63-.87,1.03-1.54,.97l-3.54-.31c-1.28-.2-2.5,.6-2.84,1.85l-.21,.77c-.34,1.25,.33,2.55,1.53,3.02l3.23,1.51c.61,.29,.96,.94,.85,1.61-.17,1.06-.31,2.13-.42,3.21-.07,.67-.57,1.22-1.24,1.34l-3.51,.62C.98,53.63,0,54.72,0,56.01ZM56.41,15.26c22.73,0,41.15,18.42,41.15,41.15,0,22.73-18.42,41.15-41.15,41.15S15.26,79.13,15.26,56.41,33.68,15.26,56.41,15.26Z"/></g></svg>