<?xml version="1.0" encoding="UTF-8"?><svg id="_レイヤー_2" xmlns="http://www.w3.org/2000/svg" viewBox="0 0 96.85 87"><defs><style>.cls-1{fill:#a88663;}</style></defs><g id="_レイヤー_1-2"><path class="cls-1" d="M95.04,38.97l-3.31-.2c-.99-.06-1.79-.8-1.95-1.78-1.64-10.47-7.15-19.66-15.04-26.04-.77-.62-1.01-1.69-.57-2.58l1.48-2.97c.45-.91,.12-2.02-.76-2.53l-4.52-2.61c-.88-.51-2.01-.24-2.57,.61l-1.83,2.76c-.55,.83-1.59,1.15-2.52,.79-4.67-1.8-9.74-2.78-15.04-2.78s-10.37,.99-15.04,2.78c-.93,.36-1.97,.03-2.52-.79l-1.83-2.76c-.56-.85-1.69-1.12-2.57-.61l-4.52,2.61c-.88,.51-1.22,1.62-.76,2.53l1.48,2.97c.44,.89,.2,1.95-.57,2.58-7.88,6.38-13.4,15.57-15.04,26.04-.15,.98-.96,1.72-1.95,1.78l-3.31,.2c-1.02,.06-1.81,.9-1.81,1.92v5.22c0,1.02,.79,1.86,1.81,1.92l3.31,.2c.99,.06,1.79,.8,1.95,1.78,1.64,10.47,7.15,19.66,15.04,26.04,.77,.62,1.01,1.69,.57,2.58l-1.48,2.97c-.45,.91-.12,2.02,.76,2.53l4.52,2.61c.88,.51,2.01,.24,2.57-.61l1.83-2.76c.55-.83,1.59-1.15,2.52-.79,4.67,1.8,9.74,2.78,15.04,2.78s10.37-.99,15.04-2.78c.93-.36,1.97-.03,2.52,.79l1.83,2.76c.56,.85,1.69,1.12,2.57,.61l4.52-2.61c.88-.51,1.22-1.62,.76-2.53l-1.48-2.97c-.44-.89-.2-1.95,.57-2.58,7.88-6.38,13.4-15.57,15.04-26.04,.15-.98,.96-1.72,1.95-1.78l3.31-.2c1.02-.06,1.81-.9,1.81-1.92v-5.22c0-1.02-.79-1.86-1.81-1.92Zm-13.02,4.53c0,4.33-.82,8.47-2.31,12.27l-3.49-2.01c1.18-3.2,1.82-6.65,1.82-10.25,0-15.11-11.31-27.57-25.93-29.39v-4c16.81,1.84,29.9,16.09,29.9,33.39Zm-54.43,0c0-10.25,7.4-18.76,17.14-20.51v9.65c-4.52,1.54-7.77,5.82-7.77,10.86,0,.27,.01,.54,.03,.81l-8.59,4.96c-.53-1.83-.81-3.77-.81-5.77Zm12.3,7.66c2.1,2.34,5.14,3.81,8.53,3.81s6.43-1.47,8.53-3.81l8.21,4.74c-3.8,5.12-9.88,8.43-16.74,8.43s-12.95-3.32-16.74-8.43l8.21-4.74Zm19.97-6.86c.02-.27,.03-.54,.03-.81,0-5.04-3.25-9.32-7.77-10.86v-9.65c9.74,1.74,17.14,10.26,17.14,20.51,0,2-.28,3.93-.81,5.77l-8.59-4.96ZM44.73,10.11v4c-14.62,1.82-25.93,14.28-25.93,29.39,0,3.6,.64,7.06,1.82,10.25l-3.49,2.01c-1.49-3.8-2.31-7.94-2.31-12.27,0-17.3,13.08-31.55,29.9-33.39ZM20.59,62.31l3.45-1.99c5.34,7.74,14.27,12.81,24.39,12.81s19.04-5.07,24.39-12.81l3.45,1.99c-6.04,8.92-16.25,14.78-27.84,14.78s-21.8-5.86-27.84-14.78Z"/></g></svg>