<?xml version="1.0" encoding="UTF-8"?><svg id="_レイヤー_2" xmlns="http://www.w3.org/2000/svg" viewBox="0 0 182.23 163.69"><defs><style>.cls-1{fill:#6d5944;}</style></defs><g id="_レイヤー_1-2"><path class="cls-1" d="M178.82,73.32l-6.24-.38c-1.86-.11-3.37-1.51-3.66-3.36-3.08-19.7-13.46-36.99-28.29-48.99-1.45-1.17-1.9-3.18-1.07-4.85l2.79-5.59c.86-1.72,.23-3.8-1.43-4.76L132.42,.49c-1.66-.96-3.78-.46-4.84,1.14l-3.44,5.2c-1.03,1.56-3,2.16-4.74,1.49-8.78-3.38-18.32-5.24-28.29-5.24s-19.51,1.86-28.29,5.24c-1.74,.67-3.71,.06-4.74-1.49l-3.44-5.2c-1.06-1.6-3.18-2.1-4.84-1.14l-8.5,4.91c-1.66,.96-2.29,3.04-1.43,4.76l2.79,5.59c.83,1.67,.38,3.68-1.07,4.85-14.83,12.01-25.21,29.29-28.29,48.99-.29,1.84-1.8,3.24-3.66,3.36l-6.24,.38c-1.91,.12-3.41,1.7-3.41,3.62v9.82c0,1.92,1.49,3.5,3.41,3.62l6.24,.38c1.86,.11,3.37,1.51,3.66,3.36,3.08,19.7,13.46,36.99,28.29,48.99,1.45,1.17,1.9,3.18,1.07,4.85l-2.79,5.59c-.86,1.72-.23,3.8,1.43,4.76l8.5,4.91c1.66,.96,3.78,.46,4.84-1.14l3.44-5.2c1.03-1.56,3-2.16,4.74-1.49,8.78,3.38,18.32,5.24,28.29,5.24s19.51-1.86,28.29-5.24c1.74-.67,3.71-.06,4.74,1.49l3.44,5.2c1.06,1.6,3.18,2.1,4.84,1.14l8.5-4.91c1.66-.96,2.29-3.04,1.43-4.76l-2.79-5.59c-.83-1.67-.38-3.68,1.07-4.85,14.83-12.01,25.21-29.29,28.29-48.99,.29-1.84,1.8-3.24,3.66-3.36l6.24-.38c1.91-.12,3.41-1.7,3.41-3.62v-9.82c0-1.92-1.49-3.5-3.41-3.62Zm-24.5,8.53c0,8.14-1.54,15.93-4.35,23.08l-6.56-3.79c2.22-6.01,3.43-12.51,3.43-19.29,0-28.43-21.28-51.88-48.78-55.31v-7.52c31.64,3.46,56.26,30.27,56.26,62.83Zm-102.41,0c0-19.28,13.92-35.31,32.25-38.59v18.16c-8.51,2.89-14.63,10.94-14.63,20.43,0,.51,.02,1.02,.06,1.52l-16.16,9.33c-.99-3.45-1.52-7.08-1.52-10.85Zm23.15,14.42c3.95,4.4,9.68,7.16,16.05,7.16s12.1-2.77,16.05-7.16l15.45,8.92c-7.14,9.63-18.59,15.87-31.5,15.87s-24.36-6.24-31.5-15.87l15.45-8.92Zm37.57-12.9c.03-.5,.06-1.01,.06-1.52,0-9.48-6.12-17.53-14.63-20.43v-18.16c18.33,3.28,32.25,19.31,32.25,38.59,0,3.76-.53,7.4-1.52,10.85l-16.16-9.33ZM84.16,19.02v7.52c-27.5,3.42-48.78,26.88-48.78,55.31,0,6.78,1.21,13.28,3.43,19.29l-6.56,3.79c-2.81-7.15-4.35-14.93-4.35-23.08,0-32.56,24.62-59.37,56.26-62.83ZM38.73,117.24l6.49-3.75c10.06,14.56,26.86,24.09,45.89,24.09s35.83-9.54,45.89-24.09l6.49,3.75c-11.36,16.79-30.58,27.82-52.38,27.82s-41.02-11.03-52.38-27.82Z"/></g></svg>