<?xml version="1.0" encoding="UTF-8"?><svg id="_レイヤー_2" xmlns="http://www.w3.org/2000/svg" viewBox="0 0 156.32 156.32"><defs><style>.cls-1{fill:#6d5944;}</style></defs><g id="_レイヤー_1-2"><path class="cls-1" d="M153.19,74.12l-6.45-1.14c-.19-2.56-.53-5.09-.99-7.57l5.93-2.77c1.67-.65,2.59-2.45,2.12-4.18l-.29-1.07c-.46-1.73-2.16-2.84-3.93-2.56l-6.51,.57c-.85-2.42-1.82-4.77-2.92-7.06l5.01-4.2c1.45-1.06,1.87-3.04,.97-4.59l-.55-.96c-.9-1.55-2.82-2.18-4.46-1.46l-6.15,2.24c-1.44-2.1-2.99-4.12-4.65-6.05l3.76-5.37c1.13-1.4,1.02-3.42-.25-4.69l-.78-.78c-1.27-1.27-3.29-1.38-4.69-.25l-5.37,3.76c-1.93-1.66-3.95-3.21-6.05-4.65l2.24-6.15c.73-1.64,.1-3.56-1.46-4.46l-.96-.55c-1.55-.9-3.53-.48-4.59,.97l-4.2,5.01c-2.28-1.1-4.64-2.07-7.06-2.92l.57-6.51c.28-1.77-.83-3.47-2.56-3.93l-1.07-.29c-1.73-.46-3.54,.45-4.18,2.12l-2.77,5.93c-2.48-.46-5-.8-7.57-.99l-1.14-6.45c-.19-1.78-1.7-3.14-3.49-3.14h-1.1c-1.79,0-3.3,1.35-3.49,3.14l-1.14,6.45c-2.56,.19-5.09,.53-7.57,.99l-2.77-5.93c-.65-1.67-2.45-2.59-4.18-2.12l-1.07,.29c-1.73,.46-2.84,2.16-2.56,3.93l.57,6.51c-2.42,.85-4.77,1.82-7.06,2.92l-4.2-5.01c-1.06-1.45-3.04-1.87-4.59-.97l-.96,.55c-1.55,.9-2.18,2.82-1.46,4.46l2.24,6.15c-2.1,1.44-4.12,2.99-6.05,4.65l-5.37-3.76c-1.4-1.13-3.42-1.02-4.69,.25l-.78,.78c-1.27,1.27-1.38,3.29-.25,4.69l3.76,5.37c-1.66,1.93-3.21,3.95-4.65,6.05l-6.15-2.24c-1.64-.73-3.56-.1-4.46,1.46l-.55,.96c-.9,1.55-.48,3.53,.97,4.59l5.01,4.2c-1.1,2.28-2.07,4.64-2.92,7.06l-6.51-.57c-1.77-.28-3.47,.83-3.93,2.56l-.29,1.07c-.46,1.73,.45,3.54,2.12,4.18l5.93,2.77c-.46,2.48-.8,5-.99,7.57l-6.45,1.14c-1.78,.19-3.14,1.7-3.14,3.49v1.1c0,1.79,1.35,3.3,3.14,3.49l6.45,1.14c.19,2.56,.53,5.09,.99,7.57l-5.93,2.77c-1.67,.65-2.59,2.45-2.12,4.18l.29,1.07c.46,1.73,2.16,2.84,3.93,2.56l6.51-.57c.85,2.42,1.82,4.77,2.92,7.06l-5.01,4.2c-1.45,1.06-1.87,3.04-.97,4.59l.55,.96c.9,1.55,2.82,2.18,4.46,1.46l6.15-2.24c1.44,2.1,2.99,4.12,4.65,6.05l-3.76,5.37c-1.13,1.4-1.02,3.42,.25,4.69l.78,.78c1.27,1.27,3.29,1.38,4.69,.25l5.37-3.76c1.93,1.66,3.95,3.21,6.05,4.65l-2.24,6.15c-.73,1.64-.1,3.56,1.46,4.46l.96,.55c1.55,.9,3.53,.48,4.59-.97l4.2-5.01c2.28,1.1,4.64,2.07,7.06,2.92l-.57,6.51c-.28,1.77,.83,3.47,2.56,3.93l1.07,.29c1.73,.46,3.54-.45,4.18-2.12l2.77-5.93c2.48,.46,5,.8,7.57,.99l1.14,6.45c.19,1.78,1.7,3.14,3.49,3.14h1.1c1.79,0,3.3-1.35,3.49-3.14l1.14-6.45c2.56-.19,5.09-.53,7.57-.99l2.77,5.93c.65,1.67,2.45,2.59,4.18,2.12l1.07-.29c1.73-.46,2.84-2.16,2.56-3.93l-.57-6.51c2.42-.85,4.77-1.82,7.06-2.92l4.2,5.01c1.06,1.45,3.04,1.87,4.59,.97l.96-.55c1.55-.9,2.18-2.82,1.46-4.46l-2.24-6.15c2.1-1.44,4.12-2.99,6.05-4.65l5.37,3.76c1.4,1.13,3.42,1.02,4.69-.25l.78-.78c1.27-1.27,1.38-3.29,.25-4.69l-3.76-5.37c1.66-1.93,3.21-3.95,4.65-6.05l6.15,2.24c1.64,.73,3.56,.1,4.46-1.46l.55-.96c.9-1.55,.48-3.53-.97-4.59l-5.01-4.2c1.1-2.28,2.07-4.64,2.92-7.06l6.51,.57c1.77,.28,3.47-.83,3.93-2.56l.29-1.07c.46-1.73-.45-3.54-2.12-4.18l-5.93-2.77c.46-2.48,.8-5,.99-7.57l6.45-1.14c1.78-.19,3.14-1.7,3.14-3.49v-1.1c0-1.79-1.35-3.3-3.14-3.49Zm-60.79,4.04c0,7.86-6.37,14.23-14.23,14.23s-14.23-6.37-14.23-14.23,6.37-14.23,14.23-14.23,14.23,6.37,14.23,14.23Z"/></g></svg>