<?xml version="1.0" encoding="UTF-8"?><svg id="_レイヤー_2" xmlns="http://www.w3.org/2000/svg" viewBox="0 0 186.34 186.34"><defs><style>.cls-1{fill:#a88663;}</style></defs><g id="_レイヤー_1-2"><path class="cls-1" d="M183.76,88.22l-7.86-.7c-1.35-.12-2.43-1.18-2.56-2.53-.52-5.14-1.52-10.14-2.96-14.94-.39-1.3,.2-2.69,1.4-3.32l6.98-3.65c1.3-.68,1.87-2.24,1.31-3.6l-1.63-3.93c-.56-1.36-2.07-2.06-3.47-1.62l-7.52,2.36c-1.29,.41-2.69-.16-3.33-1.35-2.43-4.49-5.27-8.73-8.47-12.66-.86-1.05-.85-2.56,.02-3.6l5.06-6.05c.94-1.13,.87-2.78-.17-3.82l-3.01-3.01c-1.04-1.04-2.7-1.11-3.82-.17l-6.05,5.06c-1.04,.87-2.55,.88-3.6,.02-3.93-3.2-8.17-6.04-12.66-8.47-1.19-.64-1.76-2.04-1.35-3.33l2.36-7.52c.44-1.4-.26-2.9-1.62-3.47l-3.93-1.63c-1.36-.56-2.92,0-3.6,1.31l-3.65,6.98c-.63,1.2-2.02,1.79-3.32,1.4-4.81-1.44-9.8-2.44-14.94-2.96-1.35-.14-2.41-1.21-2.53-2.56l-.7-7.86c-.13-1.46-1.35-2.58-2.82-2.58h-4.26c-1.47,0-2.69,1.12-2.82,2.58l-.7,7.86c-.12,1.35-1.18,2.43-2.53,2.56-5.14,.52-10.14,1.52-14.94,2.96-1.3,.39-2.69-.2-3.32-1.4l-3.65-6.98c-.68-1.3-2.24-1.87-3.6-1.31l-3.93,1.63c-1.36,.56-2.06,2.07-1.62,3.47l2.36,7.52c.41,1.29-.16,2.69-1.35,3.33-4.49,2.43-8.73,5.27-12.66,8.47-1.05,.86-2.56,.85-3.6-.02l-6.05-5.06c-1.13-.94-2.78-.87-3.82,.17l-3.01,3.01c-1.04,1.04-1.11,2.7-.17,3.82l5.06,6.05c.87,1.04,.88,2.55,.02,3.6-3.2,3.93-6.04,8.17-8.47,12.66-.64,1.19-2.04,1.76-3.33,1.35l-7.52-2.36c-1.4-.44-2.9,.26-3.47,1.62l-1.63,3.93c-.56,1.36,0,2.92,1.31,3.6l6.98,3.65c1.2,.63,1.79,2.02,1.4,3.32-1.44,4.81-2.44,9.8-2.96,14.94-.14,1.35-1.21,2.41-2.56,2.53l-7.86,.7c-1.46,.13-2.58,1.35-2.58,2.82v4.26c0,1.47,1.12,2.69,2.58,2.82l7.86,.7c1.35,.12,2.43,1.18,2.56,2.53,.52,5.14,1.52,10.14,2.96,14.94,.39,1.3-.2,2.69-1.4,3.32l-6.98,3.65c-1.3,.68-1.87,2.24-1.31,3.6l1.63,3.93c.56,1.36,2.07,2.06,3.47,1.62l7.52-2.36c1.29-.41,2.69,.16,3.33,1.35,2.43,4.49,5.27,8.73,8.47,12.66,.86,1.05,.85,2.56-.02,3.6l-5.06,6.05c-.94,1.13-.87,2.78,.17,3.82l3.01,3.01c1.04,1.04,2.7,1.11,3.82,.17l6.05-5.06c1.04-.87,2.55-.88,3.6-.02,3.93,3.2,8.17,6.04,12.66,8.47,1.19,.64,1.76,2.04,1.35,3.33l-2.36,7.52c-.44,1.4,.26,2.9,1.62,3.47l3.93,1.63c1.36,.56,2.92,0,3.6-1.31l3.65-6.98c.63-1.2,2.02-1.79,3.32-1.4,4.81,1.44,9.8,2.44,14.94,2.96,1.35,.14,2.41,1.21,2.53,2.56l.7,7.86c.13,1.46,1.35,2.58,2.82,2.58h4.26c1.47,0,2.69-1.12,2.82-2.58l.7-7.86c.12-1.35,1.18-2.43,2.53-2.56,5.14-.52,10.14-1.52,14.94-2.96,1.3-.39,2.69,.2,3.32,1.4l3.65,6.98c.68,1.3,2.24,1.87,3.6,1.31l3.93-1.63c1.36-.56,2.06-2.07,1.62-3.47l-2.36-7.52c-.41-1.29,.16-2.69,1.35-3.33,4.49-2.43,8.73-5.27,12.66-8.47,1.05-.86,2.56-.85,3.6,.02l6.05,5.06c1.13,.94,2.78,.87,3.82-.17l3.01-3.01c1.04-1.04,1.11-2.7,.17-3.82l-5.06-6.05c-.87-1.04-.88-2.55-.02-3.6,3.2-3.93,6.04-8.17,8.47-12.66,.64-1.19,2.04-1.76,3.33-1.35l7.52,2.36c1.4,.44,2.9-.26,3.47-1.62l1.63-3.93c.56-1.36,0-2.92-1.31-3.6l-6.98-3.65c-1.2-.63-1.79-2.02-1.4-3.32,1.44-4.81,2.44-9.8,2.96-14.94,.14-1.35,1.21-2.41,2.56-2.53l7.86-.7c1.46-.13,2.58-1.35,2.58-2.82v-4.26c0-1.47-1.12-2.69-2.58-2.82ZM92.64,31.74c32.51-.28,59.25,24.71,61.77,56.51h-12.6c-2.47-24.68-23.3-43.95-48.63-43.95s-46.16,19.27-48.63,43.95h-12.6c2.51-31.32,28.82-56.23,60.7-56.51Zm17.39,61.43c0,9.31-7.55,16.86-16.86,16.86s-16.86-7.55-16.86-16.86,7.55-16.86,16.86-16.86,16.86,7.55,16.86,16.86Zm-16.32,61.43c-32.51,.28-59.24-24.71-61.77-56.51h12.6c2.47,24.68,23.3,43.95,48.63,43.95s46.16-19.27,48.63-43.95h12.6c-2.51,31.32-28.82,56.23-60.7,56.51Z"/></g></svg>