<?xml version="1.0" encoding="UTF-8"?><svg id="_レイヤー_2" xmlns="http://www.w3.org/2000/svg" viewBox="0 0 272.22 142"><defs><style>.cls-1{fill:#040000;}</style></defs><g id="_レイヤー_1-2"><g><g><path class="cls-1" d="M44.5,121c-8-1-10-7.57-10-19.12v-29.88c0-1.35,.51-2.92,1.17-4.41,1.23,2.86,3.73,6.11,7.83,5.41,1.6-.27,3-1.08,4-2.14v26.42c-4.65,.88-8.34,2.08-9,3.72,0,0-1.35,12.06,8.32,16.53,0,0,10.74-12.75,21.02-18.08,1.04,1.99,2.8,3.77,5.65,5.55,8,5,17-11,17-11l-2-1.41s-4,4.41-10,1.41-6-10-9-9c-3.99,1.33-3,8-3,8,0,.78,.04,1.52,.12,2.24-1.93,.11-4.41,.27-7.12,.5v-28.74h9v12h2.4c2.4-9.6,13.6-10.4,13.6-10.4v-2.4c-4-.8-4-3.53-4-3.53V23.09c2.14-2.78,5-3.5,5-3.5v-2.19s-7.28-1.82-7.28-10.92h-2.73c0,6.88-4.15,9.59-6.18,10.51h-9.8v-2c1.03-5.51,.69-10,.69-10h-4.19c-5.19,19.29-18.55,20.77-18.55,20.77l1.48,2.23c1.96,0,5.37-.29,8.56-.61v36.76c-.81-.81-2.08-1.69-5-3.15-4.74-2.37-6.35-6.22-6.8-7.66-.68-2.67-1.2-5.78-1.2-9.1v-3.23h3.39c1.08,.93,2.07,2.52,2.07,5.24h1.78c0-5.94,4.75-6.53,4.75-6.53v-1.43s-4.75-.58-4.75-6.53h-1.78c0,4.17-2.34,5.7-3.73,6.24h-1.72V0h-3c-3,12-17,13-17,13v3c5,1,5,4.41,5,4.41v17.59H3.5l3,3h13v5s-1,7-6,12c0,0,2.63,4.82,4.41,10.65-2.19,7.5-7.41,21.66-17.91,32.85l3,1s11.06-6.32,16.5-13.4v28.85c-.2,2.76-1.36,7.64-7,9.05l1,5s8-1,8,9l4,1s1-14,19-19v-2Zm24-57h-9v-18h9v18Zm0-44v23h-9V20h9Z"/><path class="cls-1" d="M124.5,68h14.47v-2.5c-3.47-.5-11.47-5.5-11.47-13.5h-4c0,1.93-.45,3.71-1,5.17V28.88c2.34-7.29,8.87-8.93,8.87-8.93v-2.91s-9.7-2.42-9.7-14.55h-3.64c0,11.22-8.3,14.13-9.54,14.5h-23l3,3v45h-4l3,3h15.63c-11.54,60.04-60.63,64.24-60.63,64.24v1.88c30.63-.05,49.26-11.56,60.59-25.03,.22,5.41,.41,11.49,.41,15.92,0,10,8.68,9.12,8.68,9.12,0,0,14.32-.12,18.88,0s4.44-7.12,4.44-7.12h-3c-1,3-9,2-9,2-6,0-5.76-5.71-5.76-5.71v-15.29c0-6.41-3.19-9.35-6.65-10.65,7.23-13.24,8.97-25.8,9.33-29.35h4.09Zm-28-48h8.95c-.2,7.73-.94,35.76-1.74,45h-7.21V20Z"/></g><path class="cls-1" d="M264.33,5.5h-2.95c0,7.8-4.93,10.65-6.98,11.5h-107.9l3,3h21.5c-8.22,16.27-25.5,23-25.5,23l2,4c4-1.6,7.7-2.7,11-3.45v15.68c-4.59,1.78-8,4.53-8,8.77,0,7,8,9,8,9h3c2.15-3.55,4-10,15-15h27.22c-11.61,14.73-20.22,9-20.22,9l-2,1.53c.96,5.08,1.03,9.56,.52,13.47h-32.52l3,3h29c-3.12,14.26-14,20-14,20v8c5.9-3.39,10.95-7.01,15.28-10.7h0c10.28-4.7,10.72-1.3,14.72,1.7s.71,9,.71,9c-4.29,10-19.71,11.94-19.71,11.94h-25l-3,3.06h47c12.21,.51,18.72-3.91,23.31-10.26,7.08,2.87,8.99,10.26,8.99,10.26h4.71c5-11,34-13.06,34-13.06v-2.94c-19.31,0-32.79-4.65-40.22-8.17,1.18-2.45,2.41-4.91,3.81-7.28,4.16-6.99,9.55-10.15,14-11.56h11.98c1.74,1.78,3.31,4.6,3.31,9h2.95c0-9.85,7.88-11.82,7.88-11.82v-2.37s-7.88-1.97-7.88-11.82h-2.95c0,7.8-4.92,10.65-6.98,11.5l-52.8-.32c5.36-10.14,6.57-18.41,6.83-21.18h28.32c2.25,.19,6.75,1.5,6.75,9l4,1s4-11,21-11v-2c-6.93-.87-9.36-5.92-9.88-14.77,.95-3.1,7.62-2.7,7.62-2.7v-2.51c-12.26-1-13.68-15-13.68-15h-5.07c0,12-12,13-12,13h-12.29c2.04-5.19,7.01-5.82,7.01-5.82v-2.37s-6.76-.85-7.75-8.82h31.93c2.06,.85,6.98,3.7,6.98,11.5h2.95c0-9.85,7.88-11.82,7.88-11.82v-2.37s-7.88-1.95-7.88-11.8Zm-55.83,101.5c-4.42,0-8-3.58-8-8s3.58-8,8-8,8,3.58,8,8-3.58,8-8,8Zm-16.25-87c-.99,7.97-7.75,8.82-7.75,8.82v2.37s4.96,.63,7.01,5.82h-17.53c1.41-7.81,5.52-14,5.52-14l-6-3h18.75Zm-7.65,38.99c-4.97,0-9-4.03-9-9s4.03-9,9-9,9,4.03,9,9-4.03,9-9,9Zm23.4,0c-4.97,0-9-4.03-9-9s4.03-9,9-9,9,4.03,9,9-4.03,9-9,9Zm23.4-18c4.97,0,9,4.03,9,9s-4.03,9-9,9-9-4.03-9-9,4.03-9,9-9Zm-12.89-4h-22.3c2.04-5.19,7.01-5.82,7.01-5.82v-2.37s-6.76-.85-7.75-8.82h23.79c-.99,7.97-7.75,8.82-7.75,8.82v2.37s4.95,.63,7,5.82Z"/></g></g></svg>