<?xml version="1.0" encoding="UTF-8"?><svg id="_レイヤー_2" xmlns="http://www.w3.org/2000/svg" viewBox="0 0 153 142.05"><defs><style>.cls-1{fill:#040000;}</style></defs><g id="_レイヤー_1-2"><g><path class="cls-1" d="M28.01,34h3c0-10,8-12,8-12v-3c-6.56-1.46-7.81-10.88-8-15.88V0h-3V3.12c-.19,5-1.44,14.42-8,15.88v3s8,2,8,12Z"/><path class="cls-1" d="M48.69,70.36h-2.37c0,3.45-1.53,5.25-2.77,6.14H12.01l3,4h29.63c.9,1.05,1.69,2.67,1.69,5.14h2.37c0-5.79,4.32-6.95,4.32-6.95v-1.4s-4.33-1.14-4.33-6.93Z"/><path class="cls-1" d="M4.8,46.38c.89-.9,2.51-1.38,4.69-1.38H42.01v-.14c1.85,1.15,4.3,3.61,4.31,8.53-.01,3.43-1.53,5.22-2.77,6.11H11.5l3.5,4h29.63c.9,1.05,1.69,2.67,1.69,5.14h2.37c0-5.79,4.32-6.95,4.32-6.95v-1.4s-4.3-1.15-4.31-6.91c.02-7.87,6.31-9.44,6.31-9.44v-2.37c-5.18-1.15-6.16-8.59-6.32-12.54v-2.46h-2.37v2.46c-.14,3.53-.95,9.84-4.82,11.96H9.47c-3.31,0-5.85,.86-7.53,2.57-1.91,1.94-1.94,4.2-1.94,4.45l4-.05s.06-.84,.8-1.58Z"/><path class="cls-1" d="M55.01,53s8,2,8,12h3c0-10,8-12,8-12v-3c-6.56-1.46-7.81-10.88-8-15.88v-3.12h-3v3.12c-.19,5-1.44,14.42-8,15.88v3Z"/><path class="cls-1" d="M79.01,44c0,6-2.21,11-2.21,11h3.21c6.26-7.65,12.67-9.47,16-9.86v2.86s-.76,5.32-4.27,10h-16.73l3,3h12.52c.75,1.5,2.18,4.53,3.4,8.12-2.19,7.49-7.41,21.67-17.91,32.88l3,1s11.77-6.72,17-14.07v9.02c-.2,2.76-1.36,7.64-7,9.05l1,5s8-1,8,9l4,1s1-14,19-19v-2c-8-1-10-7.57-10-19.12v-7.88c0-4,4.44-10,4.44-10,0,0-.61-1.11-1.39-3h15.77c1.29,1,2.54,2.79,2.54,6h1.97c0-6.57,5.25-7.21,5.25-7.21v-1.58s-5.25-.65-5.25-7.21h-1.97c0,4.9-2.92,6.5-4.41,7h-15c-1.02-3.14-1.97-7.26-1.97-11.76V6h-3c-3,12-17,13-17,13v3c5,1,5,4.41,5,4.41v14.73c-4.75-3.7-6-18.14-6-18.14h-3c-1,7-13,9.18-13,9.18v3.82c3.01,1,5.01,4,5.01,8Z"/><path class="cls-1" d="M118.01,53c11-18,23-15.5,23-15.5v-3.5c-11,0-13.24-16-13.24-16h-3.76c0,11-9,12.47-9,12.47v2.53c5,6-1,17-1,17l4,3Z"/><path class="cls-1" d="M118.48,73h-2.47c0,2-.38,19.4,10,21,13,2,18.59-6.76,18.59-6.76l-2.59-2.24c-10,3-23.53-12-23.53-12Z"/><path class="cls-1" d="M90.01,122.94c-16-1.06-16-13.94-16-13.94v-19c0-18,1.65-25,1.65-25h-5.65c-7,14-18,17-18,17l2,3c1.81,0,4.34,.46,7,1.09v31.63c-1.5,1.01-4.49,2.77-7.68,3.18,.44-1.9,.68-3.87,.68-5.9,0-14.36-11.64-26-26-26S2.01,100.64,2.01,115s11.64,26,26,26c10.82,0,20.09-6.6,24-16,.05,0,3,.04,3,5s0,10,3,11,1.65,3.12,5.82-4.44c3.47-6.27,7.49-12.84,9.33-18.9,4.75,20.37,25.5,23.31,43.84,22.34,13.98-.74,15-5,19-9s17-7.12,17-7.12v-3.88c-29.99,4-46.99,4-62.99,2.94Zm-43.03-9.89h-10.53c-.22-.95-.59-1.84-1.1-2.64l7.44-7.44c2.29,2.81,3.8,6.28,4.19,10.08Zm-14.38-5.39c-.8-.5-1.69-.88-2.64-1.1v-10.53c3.81,.39,7.28,1.89,10.09,4.18l-7.45,7.45Zm-8.3,7.34c0-2.05,1.66-3.71,3.71-3.71s3.71,1.66,3.71,3.71-1.66,3.71-3.71,3.71-3.71-1.66-3.71-3.71Zm1.76-8.44c-.95,.22-1.84,.59-2.64,1.1l-7.44-7.44c2.81-2.29,6.28-3.8,10.09-4.18v10.52h-.01Zm-2.64,15.78c.8,.5,1.69,.88,2.64,1.1v10.53c-3.81-.39-7.28-1.89-10.09-4.18l7.45-7.45Zm6.54,1.1c.95-.22,1.84-.59,2.64-1.1l7.44,7.44c-2.81,2.29-6.28,3.8-10.09,4.18v-10.52h.01Zm-16.73-20.47l7.44,7.44c-.5,.8-.88,1.69-1.1,2.64H9.04c.39-3.8,1.9-7.27,4.19-10.08Zm-4.19,13.98h10.53c.22,.95,.59,1.84,1.1,2.64l-7.44,7.44c-2.29-2.81-3.8-6.28-4.19-10.08Zm33.75,10.08l-7.44-7.44c.5-.8,.88-1.69,1.1-2.64h10.53c-.39,3.8-1.9,7.27-4.19,10.08Z"/></g></g></svg>