<?xml version="1.0" encoding="UTF-8"?><svg id="_レイヤー_2" xmlns="http://www.w3.org/2000/svg" viewBox="0 0 258 152"><defs><style>.cls-1{fill:#040000;}</style></defs><g id="_レイヤー_1-2"><g><g><path class="cls-1" d="M82,54.5s0-8.5,4-12.5,3-11,1.09-11.5c-1.91-.5-6.09,2.5-13.09,8.5s-14,3-14,3l-2,5c9,4,9,9.79,9,9.79v4.21H29l3,3h35v39.12c0,6.12-6,9.88-11,6.88s-11.53-4-11.53-4v2.15c3.47,.15,8.53,6.85,13.53,10.35s11.51,14.16,16.5,7.5c4.5-6,9.5-4,9.5-4l1-2c-3-4-3-17.76-3-17.76v-38.24h11v-3h-11v-6.5Z"/><path class="cls-1" d="M48.83,98c0-9.85,7.88-11.82,7.88-11.82v-2.37s-7.88-1.97-7.88-11.82h-2.95c0,9.85-7.88,11.82-7.88,11.82v2.37s7.88,1.97,7.88,11.82h2.95Z"/><path class="cls-1" d="M124,94s-6-11-6-19.85V34.05c.2-2.76,1.36-7.64,7-9.05l-1-5s-8,1-8-9l-4-1s-1,12-19,17H22V10h-3C16,22,2,23,2,23v3c5,1,5,4.41,5,4.41v25.59s-1,7-6,12c0,0,6,11,6,19.85v40.1c-.2,2.76-1.36,7.64-7,9.05l1,5s8-1,8,9l4,1s.89-12.36,15.93-18H103v18h3c3-12,17-13,17-13v-3c-5-1-5-4.41-5-4.41v-25.59s1-7,6-12Zm-92,37c-8-1-10-7.57-10-19.12v-29.88c0-4,4.44-10,4.44-10,0,0-4.44-8-4.44-17.76V30H96.26c5.29,2.72,6.74,10.34,6.74,20.12v29.88c0,4-4.44,10-4.44,10,0,0,4.44,8,4.44,17.76v23.24H32Z"/></g><g><path class="cls-1" d="M167.57,130.41c-5.43,11.41-32.57,12.35-32.57,12.35v2.24c6,3,38,1.38,38,1.38,13-.62,18-15.38,20-20.38s7.15-5.44,7.15-5.44v-3.06h-19.15c-6,0-8,1.5-13.43,12.91Z"/><path class="cls-1" d="M255.74,127.59c-11.42,6.46-21.53,3.63-28.67-.65,10.97-11.91,20.93-5.94,20.93-5.94l2-2c-1-2-1-7-1-7v-45.98c2.09-1.73,6.74-1.49,6.74-1.49v-2.53c-12.26-1-13.68-15-13.68-15h-.06V30.06c0-3.94,7.74-3.53,7.74-3.53v-2.53c-12.26-1-13.68-15-13.68-15h-5.06c0,9.16-6.99,12.11-10.3,13h-40.7V0h-3.75c-3.75,15-21.25,16.25-21.25,16.25v3.75c4.13,.83,5.52,2.96,6,4.32v24.68h6.78c-4.95,7.29-14.78,8-14.78,8v3c5,1,5,4.41,5,4.41v41.54c-.2,2.76-1.36,7.64-7,9.05l1,5s8-1,8,9l4,1s1-14,19-19h46.81c-.95,7.94-5.31,13.4-5.76,13.94-4.96-3.63-7.87-7.44-7.87-7.44h-3.18c3,15.5,12,27.68,18,29.5s13-1,17-7c2.48-3.72,10-11,10-11l-2.26-1.41Zm-32.74-85.59h-43V25h42.8l.2,.05v16.95Zm-43,7v-4h43v4h.03c-1.34,3.28-3.03,5.27-3.03,5.27l2.31,1.54c5.96-6.5,11.53-6.13,14.31-5.35-1.49,6.47-7.07,8.78-9.92,9.54h-53.7v-11h7Zm-7,14h55.8l1.2,.32v12.68h-57v-13Zm0,16h57v13h-56.98c-.02-.69-.02-1.39-.02-2.12v-10.88Zm6.44,29c-4.08-1.93-5.77-6.32-6.26-13h56.82v13h-50.56Z"/></g></g></g></svg>