<?xml version="1.0" encoding="UTF-8"?><svg id="_レイヤー_2" xmlns="http://www.w3.org/2000/svg" viewBox="0 0 278.99 148.99"><defs><style>.cls-1{fill:#040000;}</style></defs><g id="_レイヤー_1-2"><g><g><path class="cls-1" d="M192.99,71.99h3c0-10,8-12,8-12v-3c-6.56-1.46-7.81-10.88-8-15.88v-3.12h-3v3.12c-.19,5-1.44,14.42-8,15.88v3s8,2,8,12Z"/><path class="cls-1" d="M212.99,65.99h3c0-10,8-12,8-12v-3c-6.56-1.46-7.81-10.88-8-15.88v-3.12h-3v3.12c-.19,5-1.44,14.42-8,15.88v3s8,2,8,12Z"/><path class="cls-1" d="M277.99,90.99s-6-11-6-19.85V31.04c.2-2.76,1.36-7.64,7-9.05l-1-5s-8,1-8-9l-4-1s-1,12-19,17h-71V6.99h-3c-3,12-17,13-17,13v3c5,1,5,4.41,5,4.41v25.59s-1,7-6,12c0,0,6,11,6,19.85v40.1c-.2,2.76-1.36,7.64-7,9.05l1,5s8-1,8,9l4,1s.89-12.36,15.93-18h74.07v18h3c3-12,17-13,17-13v-3c-5-1-5-4.41-5-4.41v-25.59s1-7,6-12Zm-92,37c-8-1-10-7.57-10-19.12v-29.88c0-4,4.44-10,4.44-10,0,0-4.44-8-4.44-17.76V26.99h74.26c5.29,2.72,6.74,10.34,6.74,20.12v29.88c0,4-4.44,10-4.44,10,0,0,4.44,8,4.44,17.76v23.24h-71Z"/><path class="cls-1" d="M252.55,50.84c2.56-3.15,1.44-6.85-2.91-4.85s-14.65,2-14.65,2c-1,0-2-3-2-3l-2.94,.43-.06,6.57c-.69,10.73-6.18,21.9-13.05,31.93-16.03-8.03-28.95-8.93-28.95-8.93v2c10.4,3.47,18.36,8.62,24.12,13.52-12.2,15.68-26.12,27.19-26.12,27.19l3,1.29c12.43-5.03,22.75-12.43,31.14-20.42,2.3,2.76,3.56,4.81,3.86,5.42,1,2-3,3-3,3v5c14,0,18.76,10,18.76,10h3.24c1-12,7-12,7-12v-3c-4,0-8-5-8-5-4.62-4.62-9.38-8.45-14.06-11.63,14.48-16.76,21.06-33.56,21.06-35.37,0-3,1-1,3.56-4.15Z"/></g><path class="cls-1" d="M142.99,46.75v-3.76c-15-2-15.29-24-15.29-24h-4.71c1,4-4,12-4,12-4.22,6.2-9.43,11.19-15,15.24V28.35c1-14.65,9-26.35,9-26.35l-4-2c-8,16-24,18-24,18v5c6,0,6,7.35,6,7.35v23.56c-3.79,1.82-7.51,3.3-11,4.53v-7.6c0-13.15,3.65-25.85,3.65-25.85h-4.82c-5.18,11-16.82,12-16.82,12v5c4,1,4,6.82,4,6.82v13.86c-1.92,.52-3.45,.95-4.47,1.31-5.53,2-7.53-3-7.53-3l-3,1.47c4,9.47,2.59,17.53,2.59,17.53h4.4l.64-3.82c.37-2.24,1.4-4.34,3.04-5.91,.03-.03,.06-.06,.09-.08,.81-.75,1.81-1.27,2.88-1.55,.46-.12,.91-.24,1.36-.36v17.38c-5.14,4-12.96,8.23-21,11.73v-18.38c0-4,4.44-10,4.44-10,0,0-3.06-5.53-4.1-13h8.32c1.33,.9,2.97,2.69,2.97,6.14h1.74c0-5.79,4.63-6.95,4.63-6.95v-1.4s-4.63-1.16-4.63-6.95h-1.74c0,3.45-1.64,5.25-2.97,6.14h-8.61c-.03-.58-.05-1.17-.05-1.76V6.99h-3c-3,12-17,13-17,13v3c5,1,5,4.41,5,4.41v25.59H15l3,3h11.26c-.79,2.49-2.34,6.08-5.26,9,0,0,6,11,6,19.85v18.05c-3.82,1.12-7.27,1.87-10,2.09-12,1-17-5-17-5l-3,2s3.45,3.36,8,7c5,4,0,6,6,15,5.26,7.9,42.86-23.42,52-31.22v21.23c0,24,21,23.47,21,23.47h56v-4.47c-3.82,0-10-4-14-9-4.42-5.52-16-4-16-4h-22c-11,0-11-12-11-12V63.89c4.04-1.48,7.71-3.01,11-4.53v41.63h0c.01,7.42,.18,7.1,5.59,10,3.48,1.87,4,7,4,7h3.4v-26.54c6.34,8.58,9.53,20.54,9.53,20.54h6.47c3-14,16-16.82,16-16.82v-4.18c-5,0-5-9-5-9v-28c1-6,12-7.24,12-7.24Zm-39,37.93V52.43c4.01-2.46,6.67-4.44,8-5.44,4-3,4,0,4,0v41c-.7,4.87-7.76,.07-12-3.31Z"/></g></g></svg>