<?xml version="1.0" encoding="UTF-8"?><svg id="_レイヤー_2" xmlns="http://www.w3.org/2000/svg" viewBox="0 0 277 151"><defs><style>.cls-1{fill:#040000;}</style></defs><g id="_レイヤー_1-2"><g><g><path class="cls-1" d="M60,130c-8-1-10-7.57-10-19.12v-20.31c7.81-5.94,15.37-12.51,20-18.57l-2.35-1.07s-7.79,4.52-17.62,9.59c.32-3.98,4.41-9.52,4.41-9.52,0,0-4.44-8-4.44-17.76v-3.24h5.66c1.33,.9,2.97,2.69,2.97,6.14h1.74c0-5.79,4.63-6.95,4.63-6.95v-1.4s-4.63-1.16-4.63-6.95h-1.74c0,3.45-1.64,5.25-2.97,6.14h-5.66V9h-3c-3,12-17,13-17,13v3c5,1,5,4.41,5,4.41v2.98c-1.22,.8-3.75,2.29-6,2.4-4,.21-11-4.79-12-9.79h-4.47s.47,10,.47,12-1,22-10,29l7,2s10.23-9.76,14.96-18h10.04v5s-1,7-6,12c0,0,6,11,6,19.85v.97c-10.07,4.51-19.46,7.76-23,6.18q-9-4-12-4.29v2.29s9,4,9,13c0,0,1,14,12,5,0,0,6.01-3.51,14-8.81v25.76c-.2,2.76-1.36,7.64-7,9.05l1,5s8-1,8,9l4,1s1-14,19-19v-2ZM26.56,47c3.38-5.93,6.76-6.83,8.44-6.97v6.97h-8.44Z"/><path class="cls-1" d="M133,46h-51.08c5.01-5.71,8.08-10,8.08-10,0,0,12-18,1-21-8.89-2.43-12-8-12-8l-4,3c11,31-20,55.12-20,55.12l2,2.88c8.5-5.19,16.32-12.61,22.22-19h.58c.59,7.04,1.4,37.59-25.36,60.71l1.56,1.18s20-12.88,29-27.88c8.39-13.99,9.88-14.19,13.67-12.47-3.6,18.47-13.66,44.68-41.26,64.47l1.59,2s16.67-7.38,35-28c7.19-8.09,16.02-27.64,24.42-35.79l-.42,24.78c-5,41-35,41.47-35,41.47v3.53s23,3,39-13c13-13,11-84,11-84Zm-33.32,18.4c-.63-1.18-1.73-2.7-3.68-4.4-3.48-3.03-10.38-6.47-14.95-11h19.51c.08,2.18,.16,7.78-.88,15.4Zm15.32-3.4c-4.89-1.22-10.94-6.31-13.02-12h16.86l-.23,13.75c-1.05-.74-2.27-1.42-3.61-1.75Z"/></g><g><path class="cls-1" d="M171,34h3c0-10,8-12,8-12v-3c-6.56-1.46-7.81-10.88-8-15.88V0h-3V3.12c-.19,5-1.44,14.42-8,15.88v3s8,2,8,12Z"/><path class="cls-1" d="M191.68,32.04v-2.46h-2.37v2.46c-.14,3.53-.95,9.84-4.82,11.96h-32.03c-3.31,0-5.85,.86-7.53,2.57-1.91,1.94-1.94,4.2-1.94,4.45l4-.05s.05-.85,.79-1.6c.89-.9,2.51-1.38,4.69-1.38h32.53v-.14c1.85,1.15,4.3,3.61,4.31,8.53-.01,3.43-1.53,5.22-2.77,6.11h-32.04l3.5,4h29.63c.9,1.05,1.69,2.67,1.69,5.14v1.72c0,3.45-1.53,5.25-2.77,6.14h-31.55l3,4h29.63c.9,1.05,1.69,2.67,1.69,5.14h2.37c0-5.79,4.32-6.95,4.32-6.95v-1.4s-4.32-1.16-4.32-6.95v-1.72c0-5.79,4.32-6.95,4.32-6.95v-1.4s-4.3-1.15-4.31-6.91c.02-7.87,6.31-9.44,6.31-9.44v-2.37c-5.19-1.11-6.17-8.55-6.33-12.5Z"/><path class="cls-1" d="M272.37,74.86h-1.74c0,3.45-1.64,5.25-2.97,6.14h-5.24c-3.55-.99-4.91-4.94-5.43-7.83v-8.88c2.49-8.06,11.02-9.84,11.02-9.84v-2.91s-11.7-2.42-11.7-14.55h-3.64c0,9.15-5.52,12.77-8.23,14h-10.44V28.99h26.66c1.33,.9,2.97,2.69,2.97,6.14h1.74c0-5.79,4.63-6.95,4.63-6.95v-1.4s-4.63-1.16-4.63-6.95h-1.74c0,3.45-1.64,5.25-2.97,6.14h-58.66l3,3h10v22h-3.66c-1.33-.9-2.97-2.69-2.97-6.14h-1.74c0,5.79-4.63,6.95-4.63,6.95v1.4s4.63,1.16,4.63,6.95h1.74c0-3.45,1.64-5.25,2.97-6.14h3.66v15.76s0,11.24-7.5,11.24h-8.5l3,3h65.66c1.33,.9,2.97,2.69,2.97,6.14h1.74c0-5.79,4.63-6.95,4.63-6.95v-1.4s-4.63-1.13-4.63-6.92Zm-26.37-7.86c0,5.52-4.48,10-10,10s-10-4.48-10-10,4.48-10,10-10,10,4.48,10,10Z"/><path class="cls-1" d="M191.68,91h-2.37c0,7.89-6.32,8-6.32,8h-15.91c1.35-6.06,3.47-11.35,3.47-11.35h-4.55c-3,9.65-20,20.35-20,20.35l2,3c1.82-1.3,3.91-2.16,6-2.72v19.01c-4.67,2.64-8,5.87-8,9.71,0,7,7,12,7,12h3c2.15-3.55,1-9,16-21,0,0,5.66-3.14,10-4.44v6.38c0,2.94-.45,6.44,4,10.06,6,4.88,5,8.71,5,8.71h3v-38.71c0-7.89,4-9.05,4-9.05v-1.9s-6.32-.16-6.32-8.05Zm-25.68,31.31v-14.81c0-1.75,.2-3.63,.5-5.5h15.5v16.35c-3.12,.58-9.47,1.88-16,3.96Z"/><path class="cls-1" d="M236,88c-16.57,0-30,13.43-30,30s13.43,30,30,30,30-13.43,30-30-13.43-30-30-30Zm9.74,27.75c-.25-1.1-.69-2.12-1.27-3.05l8.59-8.59c2.64,3.24,4.38,7.25,4.83,11.64h-12.15Zm-4.44-6.22c-.93-.58-1.95-1.01-3.05-1.27v-12.15c4.39,.45,8.4,2.18,11.64,4.83l-8.59,8.59Zm-9.59,8.47c0-2.37,1.92-4.29,4.29-4.29s4.29,1.92,4.29,4.29-1.92,4.29-4.29,4.29-4.29-1.92-4.29-4.29Zm2.04-9.74c-1.1,.25-2.12,.69-3.05,1.27l-8.59-8.59c3.24-2.64,7.25-4.38,11.64-4.83v12.15Zm-3.05,18.21c.93,.58,1.95,1.01,3.05,1.27v12.15c-4.39-.45-8.4-2.18-11.64-4.83l8.59-8.59Zm7.55,1.27c1.1-.25,2.12-.69,3.05-1.27l8.59,8.59c-3.24,2.64-7.25,4.38-11.64,4.83v-12.15Zm-19.31-23.63l8.59,8.59c-.58,.93-1.01,1.95-1.27,3.05h-12.15c.45-4.39,2.19-8.39,4.83-11.64Zm-4.83,16.14h12.15c.25,1.1,.69,2.12,1.27,3.05l-8.59,8.59c-2.64-3.25-4.38-7.25-4.83-11.64Zm38.95,11.64l-8.59-8.59c.58-.93,1.01-1.95,1.27-3.05h12.15c-.45,4.39-2.19,8.39-4.83,11.64Z"/></g></g></g></svg>