<?xml version="1.0" encoding="UTF-8"?><svg id="_レイヤー_2" xmlns="http://www.w3.org/2000/svg" viewBox="0 0 308.72 121"><defs><style>.cls-1{fill:#040000;}</style></defs><g id="_レイヤー_1-2"><g><g><path class="cls-1" d="M84.06,4h-5.06c0,3.29-.91,5.75-2.21,7.59-6.05-1.48-16.56-3.59-27.29-3.59-6.78,0-13.48,.85-19.02,1.84,1.65-3.66,3.52-5.84,3.52-5.84L26,0C18,17,0,26,0,26l2,4c3-2,8-4,15-6,0,0,16-4,32.5-4,6.26,0,12.44,.58,17.71,1.29-21.49,9.37-25.06,33.34-25.2,41.21-.85,1.12-2.11,2.08-4.01,2.55l.81,4.06s6.5-.81,6.5,7.31l3.25,.81s.81-11.38,15.44-15.44v-1.62c-3.44-.43-5.5-2.14-6.69-5.02-2.6-25.1,32.69-30.15,32.69-30.15,0-3.94,7.74-3.47,7.74-3.47v-2.53c-12.27-1-13.68-15-13.68-15Z"/><path class="cls-1" d="M51,90.12v-3.12h-3v3.12c-.19,5-1.44,14.42-8,15.88v3s8,2,8,12h3c0-10,8-12,8-12v-3c-6.56-1.46-7.81-10.88-8-15.88Z"/></g><g><path class="cls-1" d="M189.55,4h-5.06c0,3.29-.91,5.75-2.21,7.59-6.05-1.48-16.56-3.59-27.29-3.59-6.78,0-13.48,.85-19.02,1.84,1.65-3.66,3.52-5.84,3.52-5.84l-8-4c-8,17-26,26-26,26l2,4c3-2,8-4,15-6,0,0,16-4,32.5-4,6.26,0,12.44,.58,17.71,1.29-21.49,9.37-25.06,33.34-25.2,41.21-.85,1.12-2.11,2.08-4.01,2.55l.81,4.06s6.5-.81,6.5,7.31l3.25,.81s.81-11.38,15.44-15.44v-1.62c-3.44-.43-5.5-2.14-6.69-5.02-2.6-25.1,32.69-30.15,32.69-30.15,0-3.94,7.74-3.47,7.74-3.47v-2.53c-12.27-1-13.68-15-13.68-15Z"/><path class="cls-1" d="M156.49,90.12v-3.12h-3v3.12c-.19,5-1.44,14.42-8,15.88v3s8,2,8,12h3c0-10,8-12,8-12v-3c-6.56-1.46-7.81-10.88-8-15.88Z"/></g><g><path class="cls-1" d="M295.04,4h-5.06c0,3.29-.91,5.75-2.21,7.59-6.05-1.48-16.56-3.59-27.29-3.59-6.78,0-13.48,.85-19.02,1.84,1.65-3.66,3.52-5.84,3.52-5.84l-8-4c-8,17-26,26-26,26l2,4c3-2,8-4,15-6,0,0,16-4,32.5-4,6.26,0,12.44,.58,17.71,1.29-21.49,9.37-25.06,33.34-25.2,41.21-.85,1.12-2.11,2.08-4.01,2.55l.81,4.06s6.5-.81,6.5,7.31l3.25,.81s.81-11.38,15.44-15.44v-1.62c-3.44-.43-5.5-2.14-6.69-5.02-2.6-25.1,32.69-30.15,32.69-30.15,0-3.94,7.74-3.47,7.74-3.47v-2.53c-12.27-1-13.68-15-13.68-15Z"/><path class="cls-1" d="M261.98,90.12v-3.12h-3v3.12c-.19,5-1.44,14.42-8,15.88v3s8,2,8,12h3c0-10,8-12,8-12v-3c-6.56-1.46-7.81-10.88-8-15.88Z"/></g></g></g></svg>