<?xml version="1.0" encoding="UTF-8"?><svg id="_レイヤー_2" xmlns="http://www.w3.org/2000/svg" viewBox="0 0 411 142"><defs><style>.cls-1{fill:#040000;}</style></defs><g id="_レイヤー_1-2"><g><g><path class="cls-1" d="M50,113c-8-1-9-5.57-9-17.12v-23.88c0-4,4.44-10,4.44-10,0,0-4.44-8-4.44-17.76V0h-3c-3,12-17,13-17,13v3c5,1,5,4.41,5,4.41v25.59s-1,7-6,12c0,0,.37,.68,.92,1.83-2.64-.94-5.48-3.6-4.92-10.83v-12h-1.71s-5.29,11-14.29,14v3.24s8,3.76,1,15.76l2,4s7.07-7.94,19.53-10.56c1.64,3.98,3.47,9.53,3.47,14.41v34.1c-.2,2.76-1.36,7.64-7,9.05l1,5s8-1,8,9l4,1s0-16,18-21v-2Z"/><path class="cls-1" d="M67,47l-1-3c-13,5-18-11-18-11h-1.74s-2.26,11,.74,20c4.91,14.73,20-6,20-6Z"/><path class="cls-1" d="M55.74,24c-.24-3,7.41-3,7.41-3l.04-.04,50.32-.46c7,0,8.65-6,8.65-6h-3.65c-1,2-6.41,2-6.41,2h.01s-46.61,.5-46.61,.5l-.03,.02c-13.94,.31-13.39,6.98-13.39,6.98h3.66Z"/><path class="cls-1" d="M133.45,64.54c-7.52-.32-23.27-5.4-38.09-13.88,5.04-5.39,10.37-11.75,15.92-19.28,1.11-1.5,2.87-2.38,4.73-2.38h1v-4h-21s-3.31,8.73-10.6,19.3c-5.91-4.24-11.29-9.04-15.4-14.3l-2,2s4.49,8.69,12.56,18.79c-7.66,9.5-18.36,19.36-32.56,25.21l1.59,4.24s15.17-.64,37.79-21.62c3.59,3.78,7.63,7.5,12.07,10.81-3.37,.58-8.35,2.48-12.45,6.57-5,5-13,0-13,0l-2,3c5,2,6,10,6,10v5h-17.79c-1.32-.62-3.84-2.37-3.84-6.64h-1.74c0,5.79-4.63,6.95-4.63,6.95v1.4s4.63,1.16,4.63,6.95h1.74c0-2.89,1.16-4.63,2.31-5.64h19.31v27H45l3,3H121.66c1.33,.9,2.97,2.69,2.97,6.14h1.74c0-5.79,4.63-6.95,4.63-6.95v-1.4s-4.63-1.16-4.63-6.95h-1.74c0,3.45-1.64,5.25-2.97,6.14h-24.66v-27h16.32c1.16,1.01,2.31,2.75,2.31,5.64h1.74c0-5.79,4.63-6.95,4.63-6.95v-1.4s-4.63-1.16-4.63-6.95h-1.74c0,4.27-2.52,6.02-3.84,6.64h-14.79v-5c0-4.51,4.23-13.25,6.05-17.03,2.23,1.47,4.55,2.83,6.95,4.03,4.85,2.43,13,2,15-2,1.49-2.97,6.29-6.5,8.65-8.11,.53-.34,.43-1.31-.2-1.33Z"/></g><g><path class="cls-1" d="M410,84s-6-11-6-19.85V24.05c.2-2.76,1.36-7.64,7-9.05l-1-5s-8,1-8-9l-4-1s-1,12-19,17h-71V0h-3c-3,12-17,13-17,13v3c5,1,5,4.41,5,4.41v25.59s-1,7-6,12c0,0,6,11,6,19.85v40.1c-.2,2.76-1.36,7.64-7,9.05l1,5s8-1,8,9l4,1s.89-12.36,15.93-18h74.07v18h3c3-12,17-13,17-13v-3c-5-1-5-4.41-5-4.41v-25.59s1-7,6-12Zm-92,37c-8-1-10-7.57-10-19.12v-29.88c0-4,4.44-10,4.44-10,0,0-4.44-8-4.44-17.76V20h74.26c5.29,2.72,6.74,10.34,6.74,20.12v29.88c0,4-4.44,10-4.44,10,0,0,4.44,8,4.44,17.76v23.24h-71Z"/><path class="cls-1" d="M386,52.81v-1.01s-4.63-1.16-4.63-6.95h-1.74c0,3.45-1.64,5.25-2.97,6.14h-8.66v-6.5s0-8.5,4-12.5,.91-7.5-1-8-4-1-11,5-15,3-15,3l-1,5c9,4,9,9.79,9,9.79v4.22h-38l3,3h35v39.12c0,6.12-6,9.88-11,6.88s-11.53-4-11.53-4v2.15c3.47,.15,10.5,5.05,13.53,10.35,2,3.5,11.51,14.16,16.5,7.5,4.5-6,9.5-4,9.5-4l1-2c-3-4-3-17.76-3-17.76V54h8.66c1.33,.9,2.97,2.69,2.97,6.14h1.74c0-5.79,4.63-6.95,4.63-6.95v-.38Z"/><path class="cls-1" d="M335.83,88c0-9.85,7.88-11.82,7.88-11.82v-2.37s-7.88-1.97-7.88-11.82h-2.95c0,9.85-7.88,11.82-7.88,11.82v2.37s7.88,1.97,7.88,11.82h2.95Z"/></g><g><path class="cls-1" d="M272.37,120.86h-1.74c0,3.45-1.64,5.25-2.97,6.14h-6.66c-6.2,0-6.93-7.5-7-10.11v-7.89c0-12.12,11.02-14.55,11.02-14.55v-2.91s-11.7,.58-11.7-11.55h-3.64c.24,7.5-5.33,8.81-8.12,9h-42.49c.1-1.62,.34-3.83,.93-5,1-2,19.59-12.26,24-13,12-2,36,8,36,8l2-4c-9.2-2.84-14.73-5.15-21.09-8.34-4.85-2.43-7.91-7.4-7.91-12.83v-4.82c0-7,6-13,6-13l-2-2c-3,3-11,7-16.35,7.07-5.36,.07-4.65,2.93-4.65,2.93v9c0,7-11,11-16,13s-6-4-10-2.71-2.41,5.93-2.41,5.93c0,0,.41,1.77,4.24,8.63,2.51,4.5,2.99,8.75,3.02,11.15h-21.44c-21.41,0-19.41,15-19.41,15h3c2-6,8-7,8-7v19.89c-.07,2.61-.8,10.11-7,10.11h-12l-3,3h124.66c1.33,.9,2.97,2.69,2.97,6.14h1.74c0-5.79,4.63-6.95,4.63-6.95v-1.4s-4.63-1.14-4.63-6.93Zm-65.95-9.36c.52,.89,1.48,1.5,2.58,1.5s2.06-.61,2.58-1.5h7.29c-.73,4.81-4.86,8.5-9.88,8.5s-9.15-3.69-9.88-8.5h7.31Zm28.58-11.5c5.52,0,10,4.48,10,10s-4.48,10-10,10c-5.01,0-9.15-3.69-9.88-8.5h7.29c.52,.89,1.48,1.5,2.58,1.5,1.66,0,3-1.34,3-3s-1.34-3-3-3c-1.11,0-2.06,.61-2.58,1.5h-7.29c.73-4.81,4.87-8.5,9.88-8.5Zm-26,0c5.01,0,9.15,3.69,9.88,8.5h-7.29c-.52-.89-1.48-1.5-2.58-1.5s-2.06,.61-2.58,1.5h-7.29c.71-4.81,4.85-8.5,9.86-8.5Zm-26,0c5.01,0,9.15,3.69,9.88,8.5h-7.29c-.52-.89-1.48-1.5-2.58-1.5-1.66,0-3,1.34-3,3s1.34,3,3,3c1.11,0,2.06-.61,2.58-1.5h7.29c-.73,4.81-4.86,8.5-9.88,8.5-5.52,0-10-4.48-10-10s4.48-10,10-10Z"/><path class="cls-1" d="M174,27c2-3,8-6,8-6l-2-4s-5,3-11,3c-3,0-7-5-7-12,0-3.5-1-5.75-2-6.12-.97-.36-2.05,.17-2.5,1.1-1.78,3.64-7.33,16.79-.5,27.03,8,11.99,15-.01,17-3.01Z"/><path class="cls-1" d="M154,70s-3.59,9.94-.8,12.97c0,0,3.8,5.03,17.8-14.97,0,0,15-17,15-37h-3s-10,27-23,27c-5.1,0-8-4-8-4l-2,3s6,6,4,13Z"/><path class="cls-1" d="M212.82,29h36.03c1.36,22.16,16.26,26.02,21.16,27,5,1,8-1,2-6s-5-17-4.62-21c.18-1.86-.55-2.63-1.38-2.93v-.07h-.19c-.91-.25-1.86,0-1.86,0h-49.13c2.68-4.48,4.09-8.84,4.66-11.28,1.47-6.28-2.47-4.72-10.94-5.72s-13.55-1-10.55,3,3,9,3,9c0,15-11,17-11,17l1,3c10.49-.52,17.4-6,21.82-12Z"/></g></g></g></svg>