<?xml version="1.0" encoding="UTF-8"?><svg id="_レイヤー_2" xmlns="http://www.w3.org/2000/svg" viewBox="0 0 494.11 61"><defs><style>.cls-1{fill:#e3d0b9;}.cls-2{fill:#616f61;}</style></defs><g id="_レイヤー_1-2"><g><g><polygon class="cls-2" points="15.78 61 0 41.24 0 19.76 15.78 0 478.33 0 494.11 19.76 494.11 41.24 478.33 61 15.78 61"/><polygon class="cls-1" points="476.23 4.71 17.88 4.71 4.71 21.56 4.71 39.44 17.88 56.29 476.23 56.29 489.4 39.44 489.4 21.56 476.23 4.71"/><polygon class="cls-2" points="18.72 54.41 6.59 38.72 6.59 22.28 18.72 6.59 475.39 6.59 487.52 22.28 487.52 38.72 475.39 54.41 18.72 54.41"/></g><g><path class="cls-1" d="M39.15,29.08l-2.18-.11c-.38-2.28-1.57-4.29-3.28-5.7l.99-1.94c.12-.24,.04-.53-.2-.67l-1.59-.92c-.23-.13-.53-.06-.68,.16l-1.19,1.83c-1.03-.39-2.14-.61-3.31-.6-1.15,0-2.25,.22-3.27,.6l-1.19-1.83c-.15-.23-.44-.3-.68-.16l-1.59,.92c-.23,.13-.32,.43-.2,.67l.99,1.94c-1.71,1.41-2.9,3.42-3.28,5.7l-2.18,.11c-.27,.01-.48,.24-.48,.5v1.84c0,.27,.21,.49,.48,.5l2.18,.11c.38,2.28,1.57,4.29,3.28,5.7l-.99,1.94c-.12,.24-.04,.53,.2,.67l1.59,.92c.23,.13,.53,.06,.68-.16l1.19-1.83c1.03,.39,2.14,.61,3.31,.6,1.15,0,2.25-.22,3.27-.6l1.19,1.83c.15,.23,.44,.3,.68,.16l1.59-.92c.23-.13,.32-.43,.2-.67l-.99-1.94c1.71-1.41,2.9-3.42,3.28-5.7l2.18-.11c.27-.01,.48-.24,.48-.5v-1.84c0-.27-.21-.49-.48-.5Zm-11.4,7.05c-3.11,0-5.64-2.51-5.64-5.62,0-3.11,2.51-5.64,5.62-5.64,3.11,0,5.64,2.51,5.64,5.62,0,3.11-2.51,5.64-5.62,5.64Z"/><path class="cls-1" d="M477.78,29.08l-2.18-.11c-.38-2.28-1.57-4.29-3.28-5.7l.99-1.94c.12-.24,.04-.53-.2-.67l-1.59-.92c-.23-.13-.53-.06-.68,.16l-1.19,1.83c-1.03-.39-2.14-.61-3.31-.6-1.15,0-2.25,.22-3.27,.6l-1.19-1.83c-.15-.23-.44-.3-.68-.16l-1.59,.92c-.23,.13-.32,.43-.2,.67l.99,1.94c-1.71,1.41-2.9,3.42-3.28,5.7l-2.18,.11c-.27,.01-.48,.24-.48,.5v1.84c0,.27,.21,.49,.48,.5l2.18,.11c.38,2.28,1.57,4.29,3.28,5.7l-.99,1.94c-.12,.24-.04,.53,.2,.67l1.59,.92c.23,.13,.53,.06,.68-.16l1.19-1.83c1.03,.39,2.14,.61,3.31,.6,1.15,0,2.25-.22,3.27-.6l1.19,1.83c.15,.23,.44,.3,.68,.16l1.59-.92c.23-.13,.32-.43,.2-.67l-.99-1.94c1.71-1.41,2.9-3.42,3.28-5.7l2.18-.11c.27-.01,.48-.24,.48-.5v-1.84c0-.27-.21-.49-.48-.5Zm-11.4,7.05c-3.11,0-5.64-2.51-5.64-5.62,0-3.11,2.51-5.64,5.62-5.64,3.11,0,5.64,2.51,5.64,5.62,0,3.11-2.51,5.64-5.62,5.64Z"/></g></g></g></svg>